<svg width="48" height="48" viewBox="0 0 48 48" fill="none" xmlns="http://www.w3.org/2000/svg">
<path d="M43.7999 4H4.38568C4 4 4 4 4 4.37638C4 17.4651 4 30.5538 4 43.6424C4 44 4 44 4.35746 44H23.9987H43.6776C43.9974 44 43.9974 44 43.9974 43.6707C43.9974 30.5632 43.9974 17.4462 43.9974 4.33874V4.20701C44.0162 4.06587 43.9315 4 43.7999 4ZM41.4482 6.84168C41.4482 18.2837 41.4482 29.7257 41.4482 41.1677C41.4482 41.4594 41.4482 41.4594 41.166 41.4594H6.85024C6.56804 41.4594 6.56804 41.4594 6.56804 41.1677C6.56804 29.7257 6.56804 18.2837 6.56804 6.84168C6.56804 6.50294 6.53982 6.54999 6.85024 6.54999H24.0269H41.166C41.4764 6.54999 41.4482 6.50294 41.4482 6.84168Z" fill="#C5C5C5"/>
<path d="M36.9039 22.2355C36.838 21.5674 36.7345 20.9088 36.4523 20.2971C36.0949 19.5256 35.4929 19.121 34.6368 19.0645C33.9972 19.0174 33.3575 19.0457 32.7179 19.0269C32.0876 19.0457 31.4574 19.0174 30.8271 19.0645C29.9241 19.121 29.3032 19.5632 28.9552 20.3818C28.673 21.0311 28.5789 21.7274 28.5225 22.4237C28.4378 23.4776 28.4378 24.5409 28.5225 25.6041C28.5789 26.2628 28.673 26.9215 28.9176 27.5425C29.275 28.4552 29.9241 28.9351 30.9024 28.9728C32.1158 29.0292 33.3387 29.0292 34.5522 28.9728C35.5023 28.9351 36.1513 28.4835 36.5088 27.6084C36.8192 26.8556 36.9039 26.0558 36.9603 25.256C37.0167 24.2303 37.0073 23.2329 36.9039 22.2355ZM34.4769 26.1217C34.4769 26.1499 34.4769 26.1781 34.4675 26.2158C34.3641 26.9967 34.1947 27.1473 33.414 27.1473C32.8119 27.1473 32.2099 27.1755 31.6079 27.1191C31.3633 27.1097 31.147 26.9403 31.0905 26.6956C30.9776 26.3098 30.9212 25.9146 30.9212 25.5194C30.9024 25.0113 30.9118 24.5032 30.9118 24.0045C30.9024 23.1765 30.8648 22.339 31.0435 21.511C31.147 21.0217 31.3163 20.8805 31.8148 20.8711C32.4075 20.8617 33.0001 20.8617 33.5927 20.8711C34.1477 20.8711 34.3264 21.0311 34.4299 21.5768C34.5146 22.0661 34.5616 22.5648 34.5616 23.0541C34.571 24.0798 34.6086 25.096 34.4769 26.1217Z" fill="#C5C5C5"/>
<path d="M27.4338 20.1462C27.1234 19.497 26.4744 19.0829 25.7594 19.0641C24.4707 18.9983 23.1726 18.9888 21.8839 19.0547C20.962 19.0924 20.3412 19.5722 19.9931 20.4097C19.7297 21.0307 19.6357 21.6988 19.5886 22.3669C19.504 23.4584 19.504 24.5499 19.5886 25.6414C19.6451 26.3659 19.7486 27.0905 20.0778 27.7586C20.3976 28.4078 20.8962 28.8124 21.6299 28.9253C22.3542 29.0288 23.0691 28.9818 23.7652 29.0006C24.4237 28.9912 25.0445 29.01 25.6748 28.963C26.5496 28.9065 27.1799 28.5019 27.5373 27.6927C27.8101 27.0811 27.923 26.4318 27.9888 25.7731C28.1111 24.484 28.1017 23.1855 27.9512 21.8964C27.8477 21.2848 27.7255 20.692 27.4338 20.1462ZM25.5431 26.0836C25.5431 26.1213 25.5431 26.1589 25.5337 26.1966C25.4114 27.0152 25.2703 27.1375 24.4425 27.1375C23.8499 27.1375 23.2573 27.1657 22.6646 27.1093C22.4201 27.0999 22.2225 26.9305 22.1661 26.6953C22.0626 26.3377 22.0062 25.9801 21.9968 25.6132C21.9685 25.0862 21.9215 24.5499 21.9403 24.0135C21.9591 23.1667 21.9403 22.3104 22.119 21.473C22.2131 21.0213 22.3918 20.8802 22.8528 20.8708C23.483 20.8613 24.1133 20.8613 24.7435 20.8708C25.195 20.8802 25.355 21.0119 25.4678 21.4541C25.5995 21.9717 25.6183 22.508 25.6278 23.0444C25.6372 24.0512 25.656 25.0674 25.5431 26.0836Z" fill="#C5C5C5"/>
<path d="M17.2165 22.4887C16.4828 22.3946 15.7397 22.4699 15.0059 22.4511C14.4415 22.4417 13.9242 22.5452 13.5009 22.9404C13.4538 22.9874 13.4068 23.0251 13.3409 22.9874C13.2751 22.9498 13.3127 22.8839 13.3127 22.8275C13.3598 22.2629 13.4068 21.6889 13.4444 21.1149C13.4538 20.9173 13.5197 20.8609 13.7266 20.8609C15.3258 20.8703 16.9155 20.8609 18.5146 20.8703C18.684 20.8703 18.731 20.8232 18.731 20.6539C18.7216 20.1834 18.7122 19.7035 18.731 19.233C18.7404 19.0448 18.6651 19.0166 18.4958 19.0166H15.1282C13.9994 19.0166 12.8706 19.0166 11.7512 19.0166C11.5819 19.0166 11.516 19.0636 11.5066 19.233C11.4032 20.8326 11.2997 22.4323 11.1962 24.0319C11.1774 24.1824 11.2432 24.2201 11.3655 24.2577C11.8923 24.4083 12.4191 24.5588 12.9459 24.7188C13.0587 24.7564 13.181 24.747 13.2845 24.6812C13.5291 24.5212 13.8019 24.3989 14.0841 24.333C14.7802 24.1824 15.4951 24.2483 16.1912 24.2765C16.4452 24.286 16.5957 24.4553 16.6427 24.7094C16.7744 25.368 16.7744 26.0455 16.6427 26.7042C16.5863 26.9959 16.4263 27.137 16.1253 27.1465C15.3728 27.1747 14.6203 27.1747 13.8677 27.1465C13.5761 27.137 13.435 27.0053 13.3598 26.723C13.2939 26.469 13.2563 26.2055 13.2657 25.942C13.2751 25.8103 13.2187 25.7727 13.0964 25.7727C12.4567 25.7821 11.8171 25.7915 11.1774 25.7915C11.0457 25.7915 11.0081 25.8385 11.0175 25.9609C11.0363 26.3749 11.0551 26.7889 11.1021 27.2029C11.2432 28.3132 11.8265 28.906 12.8894 28.9625C14.291 29.0378 15.702 29.0378 17.1036 28.9625C17.9596 28.9155 18.5617 28.4262 18.8345 27.6169C18.9473 27.2217 19.0132 26.8077 19.0226 26.3937C19.0696 25.6221 19.0696 24.8411 18.9097 24.0789C18.7028 23.1192 18.176 22.6205 17.2165 22.4887Z" fill="#C5C5C5"/>
</svg>
