<svg width="192" height="192" viewBox="0 0 192 192" fill="none" xmlns="http://www.w3.org/2000/svg">
<path opacity="0.2" d="M172.234 79.473L152.774 68.6705C151.409 65.8287 149.833 63.0936 148.058 60.488L148.433 38.2219C140.18 30.738 130.418 25.1111 119.805 21.7208L100.72 33.1722C97.5764 32.9331 94.4196 32.9306 91.2759 33.1647L72.1802 21.707C61.5723 25.1126 51.8182 30.7535 43.5758 38.2493L43.9504 60.5032C42.1716 63.1058 40.591 65.8385 39.2219 68.6782L19.7513 79.4867C17.3969 90.3762 17.405 101.644 19.775 112.53L39.2348 123.333C40.5995 126.174 42.1759 128.909 43.9505 131.515L43.5755 153.781C51.8288 161.265 61.5912 166.892 72.204 170.282L91.2891 158.831C94.4324 159.07 97.5892 159.072 100.733 158.838L119.829 170.296C130.436 166.89 140.191 161.25 148.433 153.754L148.058 131.5C149.837 128.897 151.418 126.165 152.787 123.325L172.258 112.516C174.612 101.627 174.604 90.3591 172.234 79.473ZM96.0044 132.002C88.8843 132.002 81.924 129.89 76.0039 125.934C70.0837 121.979 65.4695 116.356 62.7447 109.778C60.02 103.2 59.3071 95.9616 60.6961 88.9783C62.0852 81.995 65.5139 75.5804 70.5486 70.5457C75.5833 65.511 81.9978 62.0824 88.9812 60.6933C95.9645 59.3042 103.203 60.0171 109.781 62.7419C116.359 65.4667 121.982 70.0809 125.937 76.001C129.893 81.9212 132.004 88.8814 132.004 96.0016C132.004 100.729 131.073 105.41 129.264 109.778C127.455 114.146 124.803 118.115 121.46 121.457C118.117 124.8 114.149 127.452 109.781 129.261C105.413 131.07 100.732 132.002 96.0044 132.002Z" fill="#624CE0"/>
<path fill-rule="evenodd" clip-rule="evenodd" d="M57.0044 96.002C57.0044 74.4628 74.4652 57.002 96.0044 57.002C117.544 57.002 135.004 74.4629 135.004 96.002C135.004 117.541 117.544 135.002 96.0044 135.002C74.4652 135.002 57.0044 117.541 57.0044 96.002ZM96.0044 63.002C77.779 63.002 63.0044 77.7765 63.0044 96.002C63.0044 114.227 77.779 129.002 96.0044 129.002C114.23 129.002 129.004 114.227 129.004 96.002C129.004 77.7764 114.23 63.002 96.0044 63.002Z" fill="#624CE0"/>
<path fill-rule="evenodd" clip-rule="evenodd" d="M71.263 18.8506C72.0858 18.5865 72.9825 18.69 73.7236 19.1346L92.0131 30.1086C94.668 29.9499 97.3301 29.952 99.9848 30.1148L118.262 19.1484C119.001 18.7045 119.896 18.6006 120.718 18.8631C131.74 22.3841 141.877 28.2275 150.448 35.9995C151.088 36.58 151.447 37.4083 151.433 38.2724L151.073 59.5984C152.539 61.8185 153.868 64.1249 155.054 66.5051L173.69 76.8502C174.444 77.2689 174.982 77.992 175.165 78.835C177.627 90.1401 177.635 101.842 175.189 113.15C175.007 113.995 174.469 114.72 173.713 115.139L155.065 125.492C153.875 127.87 152.542 130.174 151.073 132.392L151.433 153.703C151.447 154.566 151.09 155.393 150.451 155.974C141.892 163.757 131.763 169.615 120.746 173.152C119.923 173.417 119.027 173.313 118.286 172.868L99.9957 161.894C97.341 162.053 94.6789 162.051 92.0241 161.889L73.7473 172.855C73.0076 173.298 72.1127 173.402 71.291 173.14C60.2696 169.619 50.1315 163.776 41.5604 156.003C40.9203 155.423 40.5615 154.595 40.5761 153.731L40.935 132.405C39.47 130.185 38.1408 127.878 36.9547 125.498L18.319 115.153C17.5648 114.734 17.0273 114.011 16.8438 113.168C14.3824 101.863 14.3739 90.1615 16.8191 78.8528C17.0017 78.0082 17.5397 77.2833 18.2953 76.8639L36.9438 66.5117C38.1337 64.1331 39.4666 61.8287 40.9349 59.6112L40.5762 38.2998C40.5616 37.4373 40.9191 36.6103 41.5573 36.0299C50.1171 28.2456 60.2468 22.3875 71.263 18.8506ZM46.5984 39.5719L46.9499 60.4527C46.9604 61.0739 46.7777 61.683 46.4272 62.1959C44.7333 64.6746 43.2279 67.2771 41.9241 69.9812C41.655 70.5394 41.2197 71.0005 40.6779 71.3013L22.4103 81.442C20.5113 91.0603 20.5186 100.958 22.4318 110.574L40.6909 120.71C41.234 121.012 41.6701 121.474 41.939 122.034C43.2389 124.74 44.7401 127.346 46.4298 129.826C46.7787 130.338 46.9604 130.946 46.95 131.566L46.5984 152.456C53.9786 158.91 62.554 163.853 71.8378 167.003L89.7455 156.259C90.2782 155.939 90.8969 155.793 91.5164 155.84C94.5096 156.067 97.5161 156.069 100.51 155.846C101.128 155.8 101.745 155.947 102.277 156.266L120.193 167.016C129.472 163.851 138.04 158.896 145.41 152.432L145.058 131.551C145.048 130.929 145.231 130.32 145.581 129.807C147.275 127.328 148.781 124.726 150.085 122.022C150.354 121.464 150.789 121.003 151.331 120.702L169.598 110.561C171.498 100.943 171.49 91.0451 169.577 81.4296L151.318 71.2935C150.775 70.992 150.339 70.5294 150.07 69.9695C148.77 67.2629 147.269 64.6581 145.579 62.177C145.23 61.6649 145.048 61.0572 145.058 60.4375L145.41 39.547C138.03 33.0932 129.455 28.1507 120.171 24.9998L102.264 35.7447C101.731 36.0643 101.112 36.2107 100.493 36.1636C97.4988 35.936 94.4924 35.9336 91.4984 36.1565C90.8805 36.2025 90.2635 36.056 89.7322 35.7372L71.8163 24.9874C62.5371 28.152 53.969 33.1072 46.5984 39.5719Z" fill="#624CE0"/>
</svg>
