<svg xmlns="http://www.w3.org/2000/svg" xmlns:xlink="http://www.w3.org/1999/xlink" width="240" height="315" fill="none" xmlns:v="https://vecta.io/nano"><style><![CDATA[.B{fill-rule:evenodd}.C{fill:#fff}.D{fill:#060606}.E{color-interpolation-filters:sRGB}.F{flood-opacity:0}.G{stroke:#eaeaea}.H{stroke-width:.64}]]></style><g clip-path="url(#I)"><path d="M0 0h240v315H0z" class="C"/><g filter="url(#A)"><path fill="#f6f6f6" d="M0 0h240v40.976H0z"/></g><g class="D"><path d="M31.595 16.286H30.3l2.295 6.519h1.458l2.298-6.519h-1.299l-1.693 5.131h-.067l-1.697-5.131zm5.742 6.519h1.152v-4.889h-1.152v4.889zm.579-5.583c.366 0 .665-.28.665-.624s-.299-.627-.665-.627-.668.28-.668.627.299.624.668.624zm5.801 1.986c-.159-.827-.821-1.356-1.967-1.356-1.178 0-1.98.579-1.977 1.483-.003.713.436 1.184 1.375 1.378l.834.175c.449.099.659.28.659.557 0 .334-.363.586-.91.586-.528 0-.872-.229-.971-.668l-1.124.108c.143.898.898 1.429 2.098 1.429 1.222 0 2.085-.634 2.088-1.56-.003-.697-.452-1.124-1.375-1.324l-.834-.178c-.496-.111-.694-.283-.691-.567-.003-.331.363-.56.844-.56.532 0 .812.29.901.611l1.05-.115zm1.234 3.597h1.152v-4.889h-1.152v4.889zm.579-5.583c.366 0 .665-.28.665-.624s-.299-.627-.665-.627-.668.28-.668.627.299.624.668.624zm4.379.694h-.965v-1.171h-1.152v1.171H47.1v.891h.694v2.718c-.006.92.662 1.372 1.528 1.346.328-.009.554-.073.678-.115l-.194-.901c-.064.016-.194.045-.337.045-.29 0-.522-.102-.522-.567v-2.527h.965v-.891zm7.41 1.292c-.159-.827-.821-1.356-1.967-1.356-1.178 0-1.98.579-1.977 1.483-.003.713.436 1.184 1.375 1.378l.834.175c.449.099.659.28.659.557 0 .334-.363.586-.91.586-.528 0-.872-.229-.971-.668l-1.124.108c.143.898.898 1.429 2.098 1.429 1.222 0 2.085-.634 2.088-1.56-.003-.697-.452-1.124-1.375-1.324l-.834-.178c-.496-.111-.694-.283-.691-.567-.003-.331.363-.56.843-.56.532 0 .812.29.901.611l1.05-.115zm3.676-1.292h-.964v-1.171h-1.152v1.171h-.694v.891h.694v2.718c-.006.92.662 1.372 1.528 1.346.328-.009.554-.073.678-.115l-.194-.901a1.44 1.44 0 0 1-.337.045c-.29 0-.522-.102-.522-.567v-2.527h.964v-.891zm3.223 4.985c1.432 0 2.343-1.009 2.343-2.521s-.91-2.527-2.343-2.527-2.343 1.012-2.343 2.527.91 2.521 2.343 2.521zm.006-.923c-.792 0-1.181-.707-1.181-1.601s.388-1.611 1.181-1.611c.78 0 1.168.716 1.168 1.611s-.388 1.601-1.168 1.601zm3.494.828h1.152v-2.874c0-.621.468-1.06 1.101-1.06.194 0 .436.035.535.067v-1.06c-.105-.019-.287-.032-.414-.032a1.22 1.22 0 0 0-1.206.885h-.051v-.815h-1.117v4.889zm5.696.096c1.139 0 1.922-.557 2.126-1.407l-1.076-.121c-.156.414-.538.63-1.034.63-.745 0-1.238-.49-1.248-1.327h3.406v-.353c0-1.716-1.031-2.47-2.234-2.47-1.4 0-2.314 1.028-2.314 2.537 0 1.534.901 2.511 2.374 2.511zm-1.229-3.002c.035-.624.497-1.149 1.184-1.149.662 0 1.108.484 1.114 1.149h-2.298z"/><g class="B"><use xlink:href="#J"/><path d="M216.721 16.646a.72.72 0 0 1 .72-.72h10.56a.72.72 0 1 1 0 1.44h-10.56a.72.72 0 0 1-.72-.72zm0 7.683a.72.72 0 0 1 .72-.72h10.56a.72.72 0 0 1 0 1.441h-10.56a.72.72 0 0 1-.72-.72z"/></g></g><g fill="#624ce0" class="B"><path d="M12.481 20.463a.72.72 0 0 1 .72.72v3.866h8.16v-3.866a.72.72 0 1 1 1.44 0v4.106a1.2 1.2 0 0 1-1.2 1.201h-8.64a1.2 1.2 0 0 1-1.2-1.201v-4.106a.72.72 0 0 1 .72-.72zm.543-4.537l-.549 1.921h9.611l-.549-1.921h-8.514zm-.904-1.198a1.2 1.2 0 0 1 .723-.242h8.876a1.2 1.2 0 0 1 1.154.871l.861 3.013a.72.72 0 0 1-.692.918H11.52a.72.72 0 0 1-.692-.918l.861-3.013a1.2 1.2 0 0 1 .431-.629z"/><use xlink:href="#K"/><path d="M15.36 17.847a.72.72 0 0 1 .72.72v.96a1.2 1.2 0 0 0 1.2 1.201 1.2 1.2 0 0 0 1.2-1.201v-.96a.72.72 0 1 1 1.44 0v.96a2.64 2.64 0 0 1-2.64 2.641 2.64 2.64 0 0 1-2.64-2.641v-.96a.72.72 0 0 1 .72-.72z"/><path d="M19.2 17.847a.72.72 0 0 1 .72.72v.96a1.2 1.2 0 0 0 1.2 1.201 1.2 1.2 0 0 0 1.2-1.201v-.96a.72.72 0 1 1 1.44 0v.96a2.64 2.64 0 0 1-2.64 2.641 2.64 2.64 0 0 1-2.64-2.641v-.96a.72.72 0 0 1 .72-.72z"/></g><path d="M10.243 62.22h1.181V59.45h3.021v2.769h1.184v-6.519h-1.184v2.76h-3.021v-2.76h-1.181v6.519zm9.142.096c1.139 0 1.922-.557 2.126-1.407l-1.076-.121c-.156.414-.538.63-1.035.63-.745 0-1.238-.49-1.248-1.327h3.406v-.353c0-1.716-1.031-2.47-2.235-2.47-1.401 0-2.314 1.028-2.314 2.537 0 1.534.901 2.511 2.375 2.511zm-1.229-3.002c.035-.624.497-1.149 1.184-1.149.662 0 1.108.484 1.114 1.149h-2.298zm5.312 4.74c.898 0 1.417-.462 1.693-1.241l1.964-5.475-1.232-.006-1.13 3.692h-.051l-1.127-3.692h-1.222l1.773 4.991-.099.264c-.213.557-.551.595-1.054.449l-.267.898a2.16 2.16 0 0 0 .751.121zm10.02-8.352v4.584c-.003.688-.322 1.053-.888 1.053-.528 0-.882-.321-.891-.85h-1.174c0 1.203.878 1.821 2.021 1.821 1.257 0 2.101-.764 2.104-2.024v-4.584h-1.171zm4.925 6.614c1.139 0 1.923-.557 2.126-1.407l-1.076-.121c-.156.414-.538.63-1.035.63-.745 0-1.238-.49-1.248-1.327h3.406v-.353c0-1.716-1.031-2.47-2.235-2.47-1.401 0-2.314 1.028-2.314 2.537 0 1.534.901 2.511 2.375 2.511zm-1.229-3.002c.035-.624.496-1.149 1.184-1.149.662 0 1.108.484 1.114 1.149h-2.298zm8.6-.691c-.159-.828-.821-1.356-1.967-1.356-1.178 0-1.98.579-1.977 1.483-.003.713.436 1.184 1.375 1.378l.834.175c.449.099.659.28.659.557 0 .334-.363.586-.91.586-.528 0-.872-.229-.971-.669l-1.124.108c.143.898.898 1.429 2.098 1.429 1.222 0 2.085-.633 2.088-1.56-.003-.697-.452-1.124-1.375-1.324l-.834-.178c-.497-.111-.694-.283-.691-.567-.003-.331.363-.56.843-.56.532 0 .812.29.901.611l1.05-.115zm5.278 0c-.159-.828-.821-1.356-1.967-1.356-1.178 0-1.98.579-1.977 1.483-.003.713.436 1.184 1.375 1.378l.834.175c.449.099.659.28.659.557 0 .334-.363.586-.91.586-.528 0-.872-.229-.971-.669l-1.124.108c.143.898.898 1.429 2.098 1.429 1.222 0 2.085-.633 2.088-1.56-.003-.697-.452-1.124-1.375-1.324l-.834-.178c-.497-.111-.694-.283-.691-.567-.003-.331.363-.56.843-.56.532 0 .812.29.901.611l1.05-.115zm1.414 3.597h1.152V57.33h-1.152v4.889zm.579-5.583c.366 0 .665-.28.665-.624s-.299-.627-.665-.627-.668.28-.668.627.299.624.668.624zm4.249 5.679c1.229 0 2.012-.729 2.094-1.767h-1.101a.95.95 0 0 1-.984.828c-.719 0-1.184-.602-1.184-1.601 0-.987.474-1.579 1.184-1.579.554 0 .895.357.984.828h1.101c-.08-1.06-.907-1.757-2.101-1.757-1.432 0-2.336 1.035-2.336 2.527 0 1.48.882 2.521 2.343 2.521zm4.806.003c.767 0 1.225-.36 1.436-.77h.038v.672h1.108v-3.272c0-1.292-1.053-1.681-1.986-1.681-1.028 0-1.818.458-2.072 1.35l1.076.153c.115-.334.439-.621 1.003-.621.535 0 .828.274.828.754v.019c0 .331-.347.347-1.21.439-.949.102-1.856.385-1.856 1.487 0 .961.703 1.47 1.636 1.47zm.299-.847c-.481 0-.824-.22-.824-.643 0-.443.385-.627.901-.7.302-.041.907-.118 1.057-.239v.576c0 .544-.439 1.006-1.133 1.006zm5.21-5.771h-1.232l.102 4.603h1.025l.105-4.603zm-.618 6.589a.71.71 0 0 0 .7-.7.71.71 0 0 0-.7-.694c-.388 0-.704.312-.7.694-.003.388.312.7.7.7z" class="D"/><path d="M76.103 59.075h-4.482v.7h4.482v-.7zm4.677.204c0-.853.544-1.337 1.286-1.337.707 0 1.133.446 1.133 1.222v3.056h.751v-3.107c0-1.257-.668-1.846-1.668-1.846-.77 0-1.209.322-1.439.828h-.064v-2.394h-.751v6.519h.751v-2.941zm6.953 3.043c.993 0 1.719-.497 1.948-1.235l-.726-.204c-.191.509-.633.764-1.222.764-.882 0-1.49-.57-1.525-1.617h3.549v-.318c0-1.821-1.082-2.445-2.101-2.445-1.324 0-2.203 1.044-2.203 2.547s.866 2.508 2.279 2.508zm-1.525-2.941c.051-.761.589-1.439 1.448-1.439.815 0 1.337.611 1.337 1.439h-2.785zm5.05 2.839h.751v-3.094c0-.662.522-1.146 1.235-1.146a2.29 2.29 0 0 1 .458.051v-.764l-.395-.013c-.586 0-1.095.331-1.273.815h-.051v-.739h-.726v4.889zm5.595.102c.993 0 1.719-.497 1.948-1.235l-.726-.204c-.191.509-.633.764-1.222.764-.882 0-1.49-.57-1.525-1.617h3.549v-.318c0-1.821-1.082-2.445-2.101-2.445-1.324 0-2.203 1.044-2.203 2.547s.866 2.508 2.279 2.508zm-1.525-2.941c.051-.761.589-1.439 1.448-1.439.815 0 1.337.611 1.337 1.439h-2.785zm5.712-3.68h-.713v.586c0 .471-.229.879-.497 1.261l.408.331c.509-.407.802-1.082.802-1.604v-.573zm4.122 2.725c-.235-.694-.763-1.159-1.731-1.159-1.031 0-1.795.586-1.795 1.413 0 .675.401 1.127 1.298 1.337l.815.191c.494.115.726.35.726.688 0 .42-.446.764-1.146.764-.614 0-.999-.264-1.133-.789l-.713.178c.175.831.859 1.273 1.859 1.273 1.136 0 1.91-.621 1.91-1.464 0-.681-.427-1.111-1.299-1.324l-.726-.178c-.579-.143-.84-.337-.84-.713 0-.42.445-.726 1.044-.726.656 0 .926.363 1.057.7l.674-.191zm5.566 3.794h.739l1.069-3.756h.076l1.07 3.756h.738l1.49-4.889h-.789l-1.057 3.73h-.051l-1.031-3.73h-.802l-1.044 3.743h-.051l-1.057-3.743h-.79l1.49 4.889zm7.285-2.941c0-.853.544-1.337 1.286-1.337.706 0 1.133.446 1.133 1.222v3.056h.751v-3.107c0-1.257-.668-1.846-1.668-1.846-.77 0-1.209.322-1.438.828h-.064v-2.394h-.751v6.519h.751v-2.941zm6.342 3.056c.853 0 1.298-.458 1.451-.777h.038v.662h.752v-3.221c0-1.553-1.184-1.732-1.808-1.732-.739 0-1.579.255-1.961 1.146l.713.255c.165-.356.557-.738 1.273-.738.691 0 1.031.366 1.031.993v.026c0 .363-.369.331-1.26.446-.907.118-1.897.318-1.897 1.439 0 .955.738 1.502 1.668 1.502zm.114-.675c-.598 0-1.031-.267-1.031-.789 0-.573.522-.751 1.108-.828.318-.038 1.171-.127 1.298-.28v.688c0 .611-.483 1.209-1.375 1.209zm5.982-4.329h-1.044v-1.171h-.751v1.171h-.738v.637h.738v3.056c0 .853.688 1.261 1.324 1.261.281 0 .459-.051.561-.089l-.153-.675c-.064.013-.166.038-.331.038-.331 0-.65-.102-.65-.738v-2.852h1.044v-.637zm2.405-1.63h-.713v.586c0 .471-.229.879-.497 1.261l.408.331c.509-.407.802-1.082.802-1.604v-.573zm4.122 2.725c-.235-.694-.764-1.159-1.731-1.159-1.031 0-1.795.586-1.795 1.413 0 .675.401 1.127 1.298 1.337l.815.191c.493.115.726.35.726.688 0 .42-.446.764-1.146.764-.614 0-1-.264-1.133-.789l-.713.178c.175.831.859 1.273 1.859 1.273 1.136 0 1.91-.621 1.91-1.464 0-.681-.427-1.111-1.299-1.324l-.726-.178c-.579-.143-.84-.337-.84-.713 0-.42.445-.726 1.044-.726.656 0 .926.363 1.057.7l.674-.191zm5.21.853c0-.853.544-1.337 1.285-1.337.707 0 1.134.446 1.134 1.222v3.056h.751v-3.107c0-1.257-.669-1.846-1.668-1.846-.77 0-1.21.322-1.439.828h-.063v-2.394h-.752v6.519h.752v-2.941zm6.341 3.056c.853 0 1.299-.458 1.452-.777h.038v.662h.751v-3.221c0-1.553-1.184-1.732-1.808-1.732-.738 0-1.579.255-1.961 1.146l.713.255c.166-.356.558-.738 1.274-.738.69 0 1.031.366 1.031.993v.026c0 .363-.369.331-1.26.446-.908.118-1.898.318-1.898 1.439 0 .955.739 1.502 1.668 1.502zm.115-.675c-.598 0-1.031-.267-1.031-.789 0-.573.522-.751 1.107-.828.319-.038 1.172-.127 1.299-.28v.688c0 .611-.484 1.209-1.375 1.209zm3.856 2.394h.751v-2.585h.064c.165.267.484.853 1.426.853 1.222 0 2.075-.98 2.075-2.534 0-1.541-.853-2.521-2.088-2.521-.955 0-1.248.586-1.413.84h-.089v-.777h-.726v6.723zm.738-4.278c0-1.095.484-1.833 1.401-1.833.955 0 1.426.802 1.426 1.833 0 1.044-.484 1.872-1.426 1.872-.904 0-1.401-.764-1.401-1.872zm5.082 4.278h.752v-2.585h.063c.166.267.484.853 1.426.853 1.223 0 2.076-.98 2.076-2.534 0-1.541-.853-2.521-2.088-2.521-.955 0-1.248.586-1.414.84h-.089v-.777h-.726v6.723zm.739-4.278c0-1.095.484-1.833 1.4-1.833.955 0 1.426.802 1.426 1.833 0 1.044-.483 1.872-1.426 1.872-.904 0-1.4-.764-1.4-1.872zm7.132 2.546c.993 0 1.719-.497 1.948-1.235l-.726-.204c-.191.509-.633.764-1.222.764-.882 0-1.49-.57-1.525-1.617h3.549v-.318c0-1.821-1.082-2.445-2.1-2.445-1.325 0-2.203 1.044-2.203 2.547s.866 2.508 2.279 2.508zm-1.525-2.941c.051-.761.589-1.439 1.449-1.439.814 0 1.336.611 1.336 1.439h-2.785zm5.802-.102c0-.853.528-1.337 1.248-1.337.697 0 1.12.455 1.12 1.222v3.056h.751v-3.107c0-1.248-.665-1.846-1.655-1.846-.738 0-1.197.331-1.426.828h-.064v-.764h-.725v4.889h.751v-2.941zm4.85 2.941h.752V57.33h-.752v4.889zm.382-5.704c.293 0 .535-.229.535-.509s-.242-.509-.535-.509-.534.229-.534.509.241.509.534.509zm2.855 2.763c0-.853.529-1.337 1.248-1.337.697 0 1.12.455 1.12 1.222v3.056h.752v-3.107c0-1.248-.666-1.846-1.656-1.846-.738 0-1.196.331-1.426.828h-.063v-.764h-.726v4.889h.751v-2.941zm6.824 4.876c1.172 0 2.114-.535 2.114-1.795V57.33h-.726v.777h-.076c-.166-.255-.471-.84-1.426-.84-1.235 0-2.088.98-2.088 2.483 0 1.528.891 2.394 2.075 2.394.955 0 1.26-.56 1.426-.828h.064v.993c0 .815-.573 1.184-1.363 1.184-.888 0-1.2-.468-1.4-.739l-.599.42c.306.512.907.98 1.999.98zm-.025-2.686c-.942 0-1.426-.713-1.426-1.731 0-.993.471-1.795 1.426-1.795.916 0 1.4.738 1.4 1.795 0 1.082-.496 1.731-1.4 1.731zm7.86.751h.738l1.07-3.756h.076l1.069 3.756h.739l1.49-4.889h-.79l-1.057 3.73h-.051l-1.031-3.73h-.802l-1.044 3.743h-.051l-1.057-3.743h-.789l1.49 4.889zm6.533 0h.751V57.33h-.751v4.889zm.382-5.704c.293 0 .535-.229.535-.509s-.242-.509-.535-.509-.535.229-.535.509.242.509.535.509zm4.23.815h-1.044v-1.171h-.751v1.171h-.739v.637h.739v3.056c0 .853.687 1.261 1.324 1.261.28 0 .458-.051.56-.089l-.153-.675c-.063.013-.165.038-.331.038-.331 0-.649-.102-.649-.738v-2.852h1.044v-.637zm2.345 1.948c0-.853.544-1.337 1.286-1.337.706 0 1.133.446 1.133 1.222v3.056h.751v-3.107c0-1.257-.668-1.846-1.668-1.846-.77 0-1.209.322-1.439.828h-.063v-2.394h-.751v6.519h.751v-2.941zM10.771 79.053c.678 0 1.156-.36 1.439-1.12l2.082-5.589-.821-.013-1.35 3.896h-.051l-1.35-3.896h-.815l1.808 4.915-.14.382c-.274.745-.611.815-1.159.675l-.191.662c.076.038.293.089.547.089zm6.684-1.732c1.324 0 2.215-1.006 2.215-2.521 0-1.528-.891-2.534-2.215-2.534S15.24 73.273 15.24 74.8c0 1.515.891 2.521 2.215 2.521zm0-.675c-1.006 0-1.464-.866-1.464-1.846s.458-1.859 1.464-1.859 1.464.879 1.464 1.859-.458 1.846-1.464 1.846zm6.802-1.426c0 .917-.7 1.337-1.26 1.337-.624 0-1.07-.458-1.07-1.171V72.33h-.751v3.107c0 1.248.662 1.846 1.579 1.846.739 0 1.222-.395 1.451-.891h.051v.828h.751V72.33h-.751v2.89zm2.486 1.999h.751v-3.094c0-.662.522-1.146 1.235-1.146a2.29 2.29 0 0 1 .458.051v-.764l-.395-.013c-.586 0-1.095.331-1.273.815h-.051v-.739h-.726v4.889zm10.036-3.794c-.236-.694-.764-1.159-1.732-1.159-1.031 0-1.795.586-1.795 1.413 0 .675.401 1.127 1.299 1.337l.815.191c.493.115.726.35.726.688 0 .42-.446.764-1.146.764-.614 0-1-.264-1.133-.789l-.713.178c.175.831.859 1.273 1.859 1.273 1.136 0 1.91-.621 1.91-1.464 0-.681-.427-1.111-1.299-1.324l-.726-.178c-.579-.143-.84-.337-.84-.713 0-.42.446-.726 1.044-.726.656 0 .926.363 1.057.7l.675-.191zm3.705-1.095H39.44v-1.171h-.751v1.171h-.739v.637h.739v3.056c0 .853.688 1.26 1.324 1.26.28 0 .458-.051.56-.089l-.153-.675c-.064.013-.166.038-.331.038-.331 0-.649-.102-.649-.739v-2.852h1.044v-.637zm3.422 4.991c1.324 0 2.215-1.006 2.215-2.521 0-1.528-.891-2.534-2.215-2.534S41.69 73.273 41.69 74.8c0 1.515.891 2.521 2.215 2.521zm0-.675c-1.006 0-1.464-.866-1.464-1.846s.458-1.859 1.464-1.859 1.464.879 1.464 1.859-.458 1.846-1.464 1.846zm3.721.573h.751v-3.094c0-.662.522-1.146 1.235-1.146a2.29 2.29 0 0 1 .458.051v-.764l-.395-.013c-.586 0-1.095.331-1.273.815h-.051v-.739h-.726v4.889zm5.595.102c.993 0 1.719-.497 1.948-1.235l-.726-.204c-.191.509-.633.764-1.222.764-.882 0-1.49-.57-1.525-1.617h3.549v-.318c0-1.821-1.082-2.445-2.101-2.445-1.324 0-2.203 1.044-2.203 2.546s.866 2.508 2.279 2.508zm-1.525-2.941c.051-.761.589-1.439 1.448-1.439.815 0 1.337.611 1.337 1.439h-2.785zm10.056-2.05h-1.044v-1.171h-.751v1.171h-.738v.637h.738v3.056c0 .853.688 1.26 1.324 1.26.28 0 .458-.051.56-.089l-.153-.675c-.064.013-.166.038-.331.038-.331 0-.649-.102-.649-.739v-2.852h1.044v-.637zm3.422 4.991c1.324 0 2.215-1.006 2.215-2.521 0-1.528-.891-2.534-2.215-2.534s-2.215 1.006-2.215 2.534c0 1.515.891 2.521 2.215 2.521zm0-.675c-1.006 0-1.464-.866-1.464-1.846s.458-1.859 1.464-1.859 1.464.879 1.464 1.859-.458 1.846-1.464 1.846zm5.567.675c.942 0 1.261-.586 1.426-.853h.089v.751h.726v-6.519h-.751v2.406h-.064c-.165-.255-.458-.84-1.413-.84-1.235 0-2.088.98-2.088 2.521 0 1.553.853 2.534 2.075 2.534zm.102-.675c-.942 0-1.426-.828-1.426-1.872 0-1.031.471-1.833 1.426-1.833.917 0 1.4.738 1.4 1.833 0 1.108-.496 1.872-1.4 1.872zm5.416.688c.853 0 1.299-.458 1.451-.777h.038v.662h.751v-3.221c0-1.553-1.184-1.732-1.808-1.732-.739 0-1.579.255-1.961 1.146l.713.255c.165-.356.557-.739 1.273-.739.691 0 1.031.366 1.031.993v.026c0 .363-.369.331-1.26.446-.907.118-1.897.318-1.897 1.439 0 .955.738 1.502 1.668 1.502zm.115-.675c-.598 0-1.031-.267-1.031-.789 0-.573.522-.751 1.108-.828.318-.038 1.171-.127 1.299-.28v.688c0 .611-.484 1.21-1.375 1.21zm4.165 2.394c.678 0 1.155-.36 1.439-1.12l2.082-5.589-.821-.013-1.35 3.896h-.051l-1.35-3.896h-.815l1.808 4.915-.14.382c-.274.745-.611.815-1.159.675l-.191.662c.076.038.293.089.547.089zm5.114-1.782c.315 0 .573-.258.573-.573s-.258-.573-.573-.573-.573.258-.573.573.258.573.573.573z" fill="#474747"/><rect x="9.92" y="92.515" width="220.16" height="60.823" rx="4.802" class="C G H"/><path d="M25.003 138.435h1.35l.006-1.458c2.731-.198 4.297-1.7 4.304-3.833-.006-2.26-1.872-3.291-3.832-3.756l-.42-.108.025-3.635c1.019.178 1.674.79 1.776 1.706h2.273c-.038-2.024-1.63-3.501-4.036-3.73l.006-1.484h-1.35l-.006 1.484c-2.387.242-4.106 1.706-4.1 3.813 0 1.872 1.331 2.948 3.476 3.501l.573.147-.026 3.851c-1.139-.178-1.961-.827-2.043-1.98h-2.324c.089 2.388 1.732 3.807 4.354 4.024l-.006 1.458zm1.369-3.502l.025-3.495c1.159.338 1.897.783 1.904 1.687-.006.942-.764 1.617-1.929 1.808zm-1.311-5.997c-.878-.28-1.681-.744-1.668-1.648.006-.822.624-1.458 1.693-1.643l-.026 3.291zm12.113 8.047c2.756 0 4.679-1.871 4.679-4.462 0-2.509-1.744-4.317-4.113-4.317-1.057 0-1.992.421-2.476.993h-.076l.376-3.456h5.608v-1.974h-7.563l-.681 6.723 2.133.35c.439-.484 1.267-.809 2.05-.802 1.432.006 2.464 1.063 2.457 2.54.006 1.458-.999 2.495-2.394 2.495-1.178 0-2.126-.744-2.209-1.814h-2.292c.064 2.164 1.954 3.724 4.501 3.724zm6.812-.178h8.938v-1.974h-5.678v-.089l2.247-2.285c2.534-2.432 3.234-3.616 3.234-5.087 0-2.183-1.776-3.781-4.399-3.781-2.585 0-4.418 1.604-4.418 4.081h2.247c0-1.331.84-2.165 2.139-2.165 1.241 0 2.164.758 2.164 1.986 0 1.089-.662 1.866-1.948 3.171l-4.526 4.437v1.706zm12.579.14a1.42 1.42 0 0 0 1.401-1.401c-.006-.764-.649-1.387-1.401-1.387-.777 0-1.407.623-1.401 1.387-.006.777.624 1.401 1.401 1.401zm8.021.038c2.814.019 4.704-1.916 4.698-4.494.006-2.464-1.751-4.246-4.036-4.246-1.401 0-2.636.681-3.259 1.801h-.089c.006-2.744 1.012-4.412 2.82-4.412 1.12 0 1.878.65 2.12 1.649h2.324c-.28-2.107-1.98-3.692-4.443-3.692-3.132 0-5.112 2.61-5.112 7.066-.006 4.781 2.476 6.315 4.978 6.328zm-.013-1.91c-1.394 0-2.413-1.152-2.419-2.514.013-1.369 1.07-2.515 2.451-2.515s2.394 1.095 2.387 2.496c.006 1.426-1.038 2.533-2.419 2.533zm11.682 1.98c3.145.007 5.023-2.476 5.023-6.754 0-4.253-1.891-6.71-5.023-6.71s-5.016 2.451-5.023 6.71c0 4.271 1.878 6.754 5.023 6.754zm0-1.992c-1.623 0-2.642-1.63-2.636-4.762.006-3.107 1.019-4.743 2.636-4.743 1.623 0 2.636 1.636 2.642 4.743 0 3.132-1.012 4.762-2.642 4.762z" class="D"/><path d="M20.146 107.7h1.727v4.739h1.004V107.7h1.727v-.849h-4.458v.849zm10.839 1.945c0-1.806-1.102-2.87-2.567-2.87s-2.567 1.064-2.567 2.87 1.1 2.87 2.567 2.87 2.567-1.064 2.567-2.87zm-1.018 0c0 1.272-.639 1.962-1.55 1.962s-1.55-.69-1.55-1.962.641-1.961 1.55-1.961 1.55.69 1.55 1.961zm4.636 2.794c1.703 0 2.712-1.053 2.712-2.799s-1.01-2.789-2.674-2.789h-1.932v5.588h1.893zm-.881-.876v-3.836h.862c1.135 0 1.727.633 1.727 1.913s-.592 1.923-1.757 1.923h-.832zm5.741.876l.461-1.378h2.101l.464 1.378h1.08l-1.97-5.588h-1.25l-1.967 5.588h1.08zm.734-2.191l.756-2.251h.044l.756 2.251h-1.555zm3.924-3.397l2.033 3.504v2.084h1.009v-2.084l2.033-3.504h-1.143l-1.367 2.472h-.054l-1.367-2.472H44.12zm7.354 0h-.786v.562c0 .445-.175.786-.374 1.086l.458.298c.401-.333.701-.906.701-1.389v-.557zm4.654 1.536h.974c-.019-.944-.824-1.612-2.014-1.612-1.173 0-2.055.66-2.052 1.648 0 .802.57 1.263 1.49 1.501l.636.163c.603.153 1.001.341 1.004.775-.003.478-.456.797-1.116.797-.633 0-1.124-.284-1.165-.871h-.996c.041 1.111.868 1.736 2.169 1.736 1.34 0 2.117-.669 2.12-1.654-.003-.968-.802-1.41-1.643-1.609l-.524-.131c-.458-.11-.955-.303-.95-.77.003-.42.379-.728 1.012-.728.603 0 1.001.281 1.053.755zm8.432 0h.974c-.019-.944-.824-1.612-2.014-1.612-1.173 0-2.054.66-2.052 1.648 0 .802.57 1.263 1.49 1.501l.636.163c.603.153 1.001.341 1.004.775-.003.478-.456.797-1.116.797-.633 0-1.124-.284-1.165-.871h-.996c.041 1.111.868 1.736 2.169 1.736 1.34 0 2.117-.669 2.12-1.654-.003-.968-.802-1.41-1.642-1.609l-.524-.131c-.458-.11-.955-.303-.95-.77.003-.42.379-.728 1.012-.728.603 0 1.001.281 1.053.755zm3.349 4.052l.461-1.378h2.101l.464 1.378h1.08l-1.97-5.588h-1.25l-1.967 5.588h1.081zm.734-2.191l.756-2.251h.044l.756 2.251h-1.555zm4.876 2.191h3.473v-.848h-2.461v-4.74h-1.012v5.588zm5.12 0h3.656v-.848h-2.644v-1.526h2.434v-.848h-2.434V107.7h2.622v-.849h-3.634v5.588zm8.472-4.052h.974c-.019-.944-.824-1.612-2.014-1.612-1.173 0-2.055.66-2.052 1.648 0 .802.57 1.263 1.49 1.501l.636.163c.603.153 1.001.341 1.004.775-.003.478-.456.797-1.116.797-.633 0-1.124-.284-1.165-.871h-.996c.041 1.111.868 1.736 2.169 1.736 1.34 0 2.117-.669 2.12-1.654-.003-.968-.802-1.41-1.642-1.609l-.524-.131c-.458-.11-.955-.303-.95-.77.003-.42.379-.728 1.012-.728.603 0 1.001.281 1.053.755z" fill="gray"/><g fill="#a2a2a2" class="B"><path d="M96.64 106.761a3.361 3.361 0 0 0 0 6.722 3.361 3.361 0 0 0 0-6.722zm-4.32 3.361a4.32 4.32 0 1 1 8.64 0 4.32 4.32 0 1 1-8.64 0zm4.32-2.401a.48.48 0 0 1 .48.48v2.081a.48.48 0 1 1-.96 0v-2.081a.48.48 0 0 1 .48-.48z"/></g><path d="M96.64 112.523a.64.64 0 1 0 0-1.281.64.64 0 1 0 0 1.281z" fill="#a2a2a2"/><g filter="url(#B)" class="B"><path d="M174.08 120.435l6.282 3.419 8.118-3.419 6.282 3.167 6.72-5.797 8.601 7.362 10.077-5.95v24.198h-46.08v-22.98z" fill="url(#F)"/></g><rect x="9.92" y="164.223" width="220.16" height="60.823" rx="4.802" class="C G H"/><path d="M25.003 210.142h1.35l.006-1.458c2.731-.197 4.297-1.7 4.304-3.832-.006-2.26-1.872-3.292-3.832-3.756l-.42-.108.025-3.635c1.019.178 1.674.789 1.776 1.706h2.273c-.038-2.025-1.63-3.502-4.036-3.731l.006-1.483h-1.35l-.006 1.483c-2.387.242-4.106 1.706-4.1 3.813 0 1.872 1.331 2.948 3.476 3.502l.573.146-.026 3.852c-1.139-.179-1.961-.828-2.043-1.98h-2.324c.089 2.387 1.732 3.807 4.354 4.023l-.006 1.458zm1.369-3.501l.025-3.495c1.159.337 1.897.783 1.904 1.687-.006.942-.764 1.617-1.929 1.808zm-1.311-5.997c-.878-.28-1.681-.745-1.668-1.649.006-.821.624-1.458 1.693-1.642l-.026 3.291zm7.58 7.868h8.938v-1.973H35.9v-.089l2.247-2.286c2.534-2.432 3.234-3.616 3.234-5.086 0-2.184-1.776-3.782-4.399-3.782-2.585 0-4.418 1.605-4.418 4.081h2.247c0-1.331.84-2.165 2.139-2.165 1.241 0 2.165.758 2.165 1.987 0 1.088-.662 1.865-1.948 3.17l-4.526 4.437v1.706zm12.579.14a1.42 1.42 0 0 0 1.4-1.4c-.006-.764-.649-1.388-1.4-1.388a1.39 1.39 0 0 0-1.401 1.388c-.006.776.624 1.4 1.401 1.4zm7.447-13.177h-2.247l-3.24 2.081v2.165l3.049-1.948h.076v10.739h2.362v-13.037zm3.075 10.618h6.22v2.419h2.254v-2.419h1.668v-1.942h-1.668v-8.676h-2.941l-5.532 8.74v1.878zm6.245-1.942h-3.826v-.101l3.724-5.902h.102v6.003zm10.705 4.539c2.814.02 4.704-1.916 4.698-4.494.006-2.464-1.751-4.246-4.036-4.246-1.401 0-2.636.681-3.259 1.801h-.089c.006-2.743 1.012-4.411 2.82-4.411 1.12 0 1.878.649 2.12 1.649h2.324c-.28-2.108-1.98-3.693-4.443-3.693-3.132 0-5.112 2.61-5.112 7.067-.006 4.781 2.476 6.315 4.978 6.327zm-.013-1.909c-1.394 0-2.413-1.153-2.419-2.515.013-1.369 1.069-2.515 2.451-2.515s2.394 1.095 2.387 2.496c.006 1.426-1.038 2.534-2.419 2.534zm7.748 1.871a1.42 1.42 0 0 0 1.401-1.4c-.006-.764-.649-1.388-1.401-1.388a1.39 1.39 0 0 0-1.401 1.388c-.006.776.624 1.4 1.401 1.4zm8.066.108c3.145.007 5.023-2.476 5.023-6.754 0-4.252-1.891-6.71-5.023-6.71s-5.017 2.451-5.023 6.71c0 4.272 1.878 6.754 5.023 6.754zm0-1.992c-1.623 0-2.642-1.63-2.636-4.762.006-3.107 1.019-4.743 2.636-4.743 1.623 0 2.635 1.636 2.642 4.743 0 3.132-1.012 4.762-2.642 4.762zm11.957 1.992c3.144.007 5.022-2.476 5.022-6.754 0-4.252-1.89-6.71-5.022-6.71s-5.017 2.451-5.023 6.71c0 4.272 1.878 6.754 5.023 6.754zm0-1.992c-1.624 0-2.642-1.63-2.636-4.762.006-3.107 1.018-4.743 2.636-4.743 1.623 0 2.635 1.636 2.642 4.743 0 3.132-1.013 4.762-2.642 4.762z" class="D"/><path d="M20.146 179.407h1.727v4.739h1.004v-4.739h1.727v-.848h-4.458v.848zm10.839 1.946c0-1.807-1.102-2.871-2.567-2.871s-2.567 1.064-2.567 2.871 1.1 2.87 2.567 2.87 2.567-1.064 2.567-2.87zm-1.018 0c0 1.271-.639 1.961-1.55 1.961s-1.55-.69-1.55-1.961.641-1.962 1.55-1.962 1.55.69 1.55 1.962zm2.257-1.946h1.727v4.739h1.004v-4.739h1.727v-.848h-4.458v.848zm6.128 4.739l.461-1.377h2.101l.464 1.377h1.08l-1.97-5.587h-1.25l-1.967 5.587h1.08zm.734-2.19l.756-2.251h.044l.756 2.251h-1.555zm4.877 2.19h3.473v-.848h-2.461v-4.739h-1.012v5.587zm10.831-4.051h.974c-.019-.944-.824-1.613-2.013-1.613-1.173 0-2.054.661-2.052 1.648 0 .802.57 1.263 1.49 1.501l.636.164c.603.152 1.001.341 1.004.774-.003.478-.456.797-1.116.797-.633 0-1.124-.284-1.165-.87h-.996c.041 1.11.868 1.735 2.169 1.735 1.34 0 2.117-.668 2.12-1.653-.003-.969-.802-1.411-1.642-1.61l-.524-.131c-.458-.109-.955-.303-.95-.769.003-.421.379-.729 1.012-.729.603 0 1.001.281 1.053.756zm3.349 4.051l.461-1.377h2.101l.464 1.377h1.08l-1.97-5.587h-1.25l-1.967 5.587h1.08zm.734-2.19l.756-2.251h.044l.756 2.251h-1.555zm4.876 2.19h3.473v-.848h-2.461v-4.739h-1.012v5.587zm5.12 0h3.656v-.848h-2.644v-1.525h2.434v-.849h-2.434v-1.517h2.622v-.848h-3.634v5.587zm8.472-4.051h.974c-.019-.944-.824-1.613-2.013-1.613-1.173 0-2.054.661-2.052 1.648 0 .802.57 1.263 1.49 1.501l.636.164c.603.152 1.001.341 1.004.774-.003.478-.456.797-1.116.797-.633 0-1.124-.284-1.165-.87h-.996c.041 1.11.868 1.735 2.169 1.735 1.34 0 2.117-.668 2.12-1.653-.003-.969-.802-1.411-1.642-1.61l-.524-.131c-.458-.109-.955-.303-.95-.769.003-.421.379-.729 1.012-.729.603 0 1.001.281 1.053.756z" fill="gray"/><g filter="url(#C)" class="B"><path d="M174.08 192.142l6.282 3.42 8.118-3.42 6.282 3.167 6.72-5.797 8.601 7.362 10.077-5.949v24.197h-46.08v-22.98z" fill="url(#G)"/></g><rect x="9.92" y="235.93" width="220.16" height="60.823" rx="4.802" class="C G H"/><path d="M25.633 280.398c2.82 0 4.838-1.554 4.845-3.673a3.32 3.32 0 0 0-2.725-3.247v-.089c1.318-.293 2.235-1.477 2.241-2.89-.006-2.006-1.852-3.495-4.361-3.495-2.527 0-4.373 1.483-4.367 3.495-.006 1.413.898 2.597 2.241 2.89v.089c-1.541.254-2.731 1.617-2.725 3.247-.006 2.119 2.005 3.673 4.851 3.673zm0-1.821c-1.477 0-2.432-.815-2.419-2.018-.013-1.248 1.012-2.133 2.419-2.133 1.388 0 2.406.892 2.419 2.133-.013 1.203-.961 2.018-2.419 2.018zm0-5.939c-1.21 0-2.075-.783-2.063-1.917-.013-1.12.828-1.871 2.063-1.871 1.216 0 2.05.751 2.063 1.871-.013 1.14-.872 1.917-2.063 1.917zm11.712 7.76c2.814.019 4.705-1.916 4.698-4.495.006-2.463-1.751-4.246-4.036-4.246-1.401 0-2.636.681-3.259 1.802h-.089c.006-2.744 1.012-4.412 2.82-4.412 1.12 0 1.878.649 2.12 1.649h2.324c-.28-2.107-1.98-3.692-4.443-3.692-3.132 0-5.112 2.61-5.112 7.066-.006 4.781 2.476 6.315 4.978 6.328zm-.013-1.91c-1.394 0-2.413-1.152-2.419-2.515.013-1.368 1.069-2.514 2.451-2.514s2.394 1.095 2.387 2.495c.006 1.426-1.038 2.534-2.419 2.534z" class="D"/><path d="M20.146 251.115h1.727v4.739h1.004v-4.739h1.727v-.849h-4.458v.849zm10.839 1.945c0-1.806-1.102-2.87-2.567-2.87s-2.567 1.064-2.567 2.87 1.1 2.87 2.567 2.87 2.567-1.064 2.567-2.87zm-1.018 0c0 1.271-.639 1.962-1.55 1.962s-1.55-.691-1.55-1.962.641-1.962 1.55-1.962 1.55.69 1.55 1.962zm2.257-1.945h1.727v4.739h1.004v-4.739h1.727v-.849h-4.458v.849zm6.128 4.739l.461-1.378h2.101l.464 1.378h1.08l-1.97-5.588h-1.25l-1.967 5.588h1.08zm.734-2.191l.756-2.251h.044l.756 2.251h-1.555zm4.877 2.191h3.473v-.849h-2.461v-4.739h-1.012v5.588zm12.787-2.794c0-1.806-1.102-2.87-2.567-2.87s-2.567 1.064-2.567 2.87 1.1 2.87 2.567 2.87 2.567-1.064 2.567-2.87zm-1.018 0c0 1.271-.638 1.962-1.55 1.962s-1.55-.691-1.55-1.962.641-1.962 1.55-1.962 1.55.69 1.55 1.962zm2.743 2.794h1.012v-2.047h1.031l1.097 2.047h1.129l-1.209-2.216c.657-.264 1.004-.826 1.004-1.585 0-1.067-.688-1.787-1.97-1.787h-2.095v5.588zm1.012-2.887v-1.855h.928c.756 0 1.094.346 1.094.941s-.338.914-1.089.914h-.933zm6.646 2.887c1.703 0 2.712-1.053 2.712-2.8 0-1.74-1.01-2.788-2.674-2.788h-1.932v5.588h1.893zm-.881-.876v-3.836h.862c1.135 0 1.727.633 1.727 1.912 0 1.285-.592 1.924-1.757 1.924h-.832zm5.323.876h3.656v-.849h-2.644v-1.525h2.434v-.848h-2.434v-1.517h2.622v-.849h-3.634v5.588zm5.435 0h1.012v-2.047h1.031l1.097 2.047h1.13l-1.209-2.216c.658-.264 1.004-.826 1.004-1.585 0-1.067-.688-1.787-1.97-1.787H76.01v5.588zm1.012-2.887v-1.855h.928c.756 0 1.094.346 1.094.941s-.338.914-1.089.914h-.933zm7.79-1.165h.974c-.019-.944-.824-1.612-2.014-1.612-1.173 0-2.054.66-2.052 1.648 0 .802.57 1.263 1.49 1.5l.636.164c.603.153 1.001.341 1.004.775-.003.477-.456.796-1.116.796-.633 0-1.124-.283-1.165-.87h-.996c.041 1.11.868 1.735 2.169 1.735 1.34 0 2.117-.668 2.12-1.653-.003-.969-.802-1.411-1.642-1.61l-.524-.131c-.458-.109-.955-.303-.95-.769.003-.42.379-.729 1.012-.729.603 0 1.001.281 1.053.756z" fill="gray"/><g filter="url(#D)" class="B"><path d="M174.08 263.849l6.282 3.42 8.118-3.42 6.282 3.168 6.72-5.798 8.601 7.362 10.077-5.949v24.197h-46.08v-22.98z" fill="url(#H)"/></g><g filter="url(#E)" class="C"><path d="M9.6 307.317h220.8v35.854H9.6z"/></g></g><defs><filter id="A" x="0" y="0" width="240" height="40.976" filterUnits="userSpaceOnUse" class="E"><feFlood class="F"/><feBlend in="SourceGraphic" result="B"/><feColorMatrix in="SourceAlpha" values="0 0 0 0 0 0 0 0 0 0 0 0 0 0 0 0 0 0 127 0" result="C"/><feOffset dy="-0.640244"/><feComposite in2="C" operator="arithmetic" k2="-1" k3="1"/><feColorMatrix values="0 0 0 0 0.913725 0 0 0 0 0.913725 0 0 0 0 0.913725 0 0 0 1 0"/><feBlend in2="B"/></filter><filter id="B" x="174.08" y="117.805" width="46.08" height="25.61" filterUnits="userSpaceOnUse" class="E"><feFlood class="F"/><feBlend in="SourceGraphic" result="B"/><feColorMatrix in="SourceAlpha" values="0 0 0 0 0 0 0 0 0 0 0 0 0 0 0 0 0 0 127 0" result="C"/><feOffset dy="1.28049"/><feComposite in2="C" operator="arithmetic" k2="-1" k3="1"/><feColorMatrix values="0 0 0 0 0.384314 0 0 0 0 0.298039 0 0 0 0 0.878431 0 0 0 1 0"/><feBlend in2="B"/></filter><filter id="C" x="174.08" y="189.512" width="46.08" height="25.61" filterUnits="userSpaceOnUse" class="E"><feFlood class="F"/><feBlend in="SourceGraphic" result="B"/><feColorMatrix in="SourceAlpha" values="0 0 0 0 0 0 0 0 0 0 0 0 0 0 0 0 0 0 127 0" result="C"/><feOffset dy="1.28049"/><feComposite in2="C" operator="arithmetic" k2="-1" k3="1"/><feColorMatrix values="0 0 0 0 0.384314 0 0 0 0 0.298039 0 0 0 0 0.878431 0 0 0 1 0"/><feBlend in2="B"/></filter><filter id="D" x="174.08" y="261.219" width="46.08" height="25.61" filterUnits="userSpaceOnUse" class="E"><feFlood class="F"/><feBlend in="SourceGraphic" result="B"/><feColorMatrix in="SourceAlpha" values="0 0 0 0 0 0 0 0 0 0 0 0 0 0 0 0 0 0 127 0" result="C"/><feOffset dy="1.28049"/><feComposite in2="C" operator="arithmetic" k2="-1" k3="1"/><feColorMatrix values="0 0 0 0 0.384314 0 0 0 0 0.298039 0 0 0 0 0.878431 0 0 0 1 0"/><feBlend in2="B"/></filter><filter id="E" x="9.6" y="307.317" width="220.8" height="35.854" filterUnits="userSpaceOnUse" class="E"><feFlood class="F"/><feBlend in="SourceGraphic" result="B"/><feColorMatrix in="SourceAlpha" values="0 0 0 0 0 0 0 0 0 0 0 0 0 0 0 0 0 0 127 0" result="C"/><feOffset dy="-0.640244"/><feComposite in2="C" operator="arithmetic" k2="-1" k3="1"/><feColorMatrix values="0 0 0 0 0.862745 0 0 0 0 0.862745 0 0 0 0 0.862745 0 0 0 1 0"/><feBlend in2="B"/></filter><linearGradient id="F" x1="297.488" y1="143.415" x2="297.488" y2="57.302" gradientUnits="userSpaceOnUse"><stop stop-color="#624ce0" stop-opacity="0"/><stop offset="1" stop-color="#624ce0"/></linearGradient><linearGradient id="G" x1="297.488" y1="215.122" x2="297.488" y2="129.009" gradientUnits="userSpaceOnUse"><stop stop-color="#624ce0" stop-opacity="0"/><stop offset="1" stop-color="#624ce0"/></linearGradient><linearGradient id="H" x1="297.488" y1="286.829" x2="297.488" y2="200.716" gradientUnits="userSpaceOnUse"><stop stop-color="#624ce0" stop-opacity="0"/><stop offset="1" stop-color="#624ce0"/></linearGradient><clipPath id="I"><path d="M0 0h240v315H0z" class="C"/></clipPath><path id="J" d="M216.721 20.488a.72.72 0 0 1 .72-.72h10.56a.72.72 0 0 1 0 1.441h-10.56a.72.72 0 0 1-.72-.72z"/><path id="K" d="M11.52 17.847a.72.72 0 0 1 .72.72v.96a1.2 1.2 0 0 0 1.2 1.201 1.2 1.2 0 0 0 1.2-1.201v-.96a.72.72 0 1 1 1.44 0v.96a2.64 2.64 0 0 1-2.64 2.641 2.64 2.64 0 0 1-2.64-2.641v-.96a.72.72 0 0 1 .72-.72z"/></defs></svg>