<svg width="144" height="48" viewBox="0 0 144 48" fill="none" xmlns="http://www.w3.org/2000/svg">
<g clip-path="url(#clip0)">
<path d="M27.5148 14.3777C26.9089 14.0408 25.172 14.2491 23.0859 14.8958C19.435 17.3952 16.3536 21.0774 16.1386 26.9904C16.0995 27.1318 15.7394 26.9711 15.6681 26.9274C14.6822 25.0349 14.2916 23.0421 15.1148 20.1673C15.2683 19.9114 14.7666 19.5965 14.6764 19.6864C14.4958 19.8677 13.7425 20.6713 13.2422 21.5404C10.7624 25.8488 12.3841 31.3691 16.7227 33.785C21.0604 36.2047 26.538 34.6439 28.9533 30.2983C31.7475 25.2827 29.153 15.2939 27.5149 14.3778L27.5148 14.3777Z" fill="#C5C5C5"/>
<path d="M43.0415 16.7847C37.8983 16.7847 34.165 20.6141 34.165 25.8903C34.165 31.2098 37.8886 34.925 43.2207 34.925C45.914 34.925 48.0463 34.0815 49.7421 32.3452C50.2486 31.7975 50.3031 31.2697 50.3031 31.0679C50.3031 30.2078 49.6644 29.583 48.7845 29.583C48.3409 29.583 47.9699 29.7508 47.5444 30.1448C46.5842 31.0409 45.3196 31.9563 43.2207 31.9563C40.3021 31.9563 37.9285 29.7617 37.779 26.9435H49.3952C50.6584 26.9435 51.272 26.352 51.272 25.1358C51.272 24.7777 51.272 24.5193 51.2001 24.0095C50.5743 19.4858 47.5247 16.7853 43.0418 16.7853L43.0415 16.7847ZM43.0415 19.6093C45.8304 19.6093 47.62 21.3893 47.7304 24.2623H37.7826C38.0437 21.6034 40.2884 19.6093 43.0414 19.6093H43.0415Z" fill="#C5C5C5"/>
<path d="M62.3642 16.7847C60.0278 16.7847 57.7145 18.1301 56.8107 19.9988V18.844C56.8107 17.0549 55.4263 16.9643 55.149 16.9643C54.3286 16.9643 53.4519 17.458 53.4519 18.844V32.7927C53.4519 34.6505 54.9256 34.7444 55.2209 34.7444C55.5162 34.7444 56.9905 34.6505 56.9905 32.7927V25.3152C56.9905 22.0617 58.8314 19.7893 61.467 19.7893C64.0197 19.7893 65.261 21.4671 65.261 24.9192V32.7927C65.261 34.6505 66.7354 34.7444 67.0307 34.7444C67.326 34.7444 68.7997 34.6505 68.7997 32.7927V23.8062C68.7997 20.412 67.109 16.7857 62.3642 16.7857V16.7847Z" fill="#C5C5C5"/>
<path d="M84.8108 16.9648C83.993 16.9648 83.4 17.4425 83.0469 18.3823L78.2056 30.5749L73.4012 18.3823C73.0251 17.4284 72.4365 16.9648 71.6014 16.9648C70.6258 16.9648 69.8318 17.7272 69.8318 18.6646C69.8318 18.8966 69.8581 19.1974 70.0539 19.6673L75.6176 32.8243C76.2807 34.4115 77.3711 34.7446 78.1696 34.7446C78.9675 34.7446 80.0586 34.4115 80.723 32.8251L86.3229 19.595C86.5142 19.1309 86.5438 18.7901 86.5438 18.6288C86.5438 17.6806 85.7979 16.9651 84.8108 16.9651V16.9648Z" fill="#C5C5C5"/>
<path d="M95.0966 16.7851C92.8334 16.7851 90.7255 17.4164 89.1619 18.5613C88.6317 18.9276 88.3737 19.3847 88.3737 19.9595C88.3737 20.7508 88.977 21.3711 89.7486 21.3711C90.0823 21.3711 90.4559 21.238 90.7986 20.9976C92.1428 20.1002 93.406 19.6817 94.7731 19.6817C97.3894 19.6817 98.8913 21.0143 98.8913 23.3382V23.7233C93.0182 23.7297 87.0447 24.4401 87.0447 29.5571C87.0447 33.2399 90.1872 34.8888 93.3015 34.8888C95.7818 34.8888 97.7626 33.9046 99.0335 32.041V32.9371C99.0335 34.2717 99.9283 34.7449 100.696 34.7449C100.858 34.7449 102.285 34.6941 102.285 32.9371V23.5533C102.285 19.3144 99.5972 16.7842 95.0963 16.7842L95.0966 16.7851ZM98.1469 26.3325H98.8914V27.1489C98.8914 30.1349 96.9928 32.0641 94.0556 32.0641C93.2584 32.0641 90.6563 31.8783 90.6563 29.485C90.6562 26.6591 94.9311 26.3325 98.1469 26.3325Z" fill="#C5C5C5"/>
<path d="M111.502 20.1847C113.05 20.1847 113.128 18.9781 113.128 18.7364C113.128 18.0189 112.701 17.252 111.502 17.252H108.318V14.0269C108.318 12.5863 107.385 12.0752 106.585 12.0752C106.29 12.0752 104.816 12.1691 104.816 14.0269V29.3418C104.816 32.8762 106.557 34.7443 109.851 34.7443C110.703 34.7443 111.534 34.5931 112.077 34.3399C112.7 34.0288 113.056 33.5171 113.056 32.9366C113.056 32.1176 112.463 31.5237 111.646 31.5237C111.488 31.5237 111.263 31.5629 111.015 31.6342C110.712 31.7101 110.507 31.7396 110.282 31.7396C108.942 31.7396 108.318 30.8635 108.318 28.9819V20.1832H111.502V20.1847Z" fill="#C5C5C5"/>
<path d="M123.202 16.7847C117.85 16.7847 113.967 20.5839 113.967 25.8179C113.967 28.3662 114.908 30.6887 116.615 32.3574C118.31 34.0128 120.649 34.9244 123.202 34.9244C128.487 34.9244 132.473 31.0095 132.473 25.818C132.473 20.584 128.573 16.7848 123.202 16.7848L123.202 16.7847ZM123.202 31.9194C119.532 31.9194 117.612 28.8498 117.612 25.8175C117.612 21.6506 120.51 19.753 123.202 19.753C125.894 19.753 128.791 21.6506 128.791 25.8175C128.791 30.0102 125.894 31.9194 123.202 31.9194Z" fill="#C5C5C5"/>
</g>
<defs>
<clipPath id="clip0">
<rect width="120.552" height="23" fill="white" transform="translate(12 12)"/>
</clipPath>
</defs>
</svg>
