<svg width="192" height="192" viewBox="0 0 192 192" fill="none" xmlns="http://www.w3.org/2000/svg">
<path opacity="0.2" d="M138.743 27.8011L107.272 59.2725L111.515 80.4857L132.728 84.7283L164.199 53.2569L164.202 53.2556C168.098 62.4508 169.029 72.6318 166.868 82.3813C164.706 92.1308 159.558 100.964 152.141 107.651C144.724 114.338 135.407 118.546 125.486 119.689C115.566 120.833 105.535 118.855 96.7915 114.031L96.7924 114.029L54.7279 162.728C51.3516 166.101 46.7742 167.995 42.0021 167.993C37.23 167.992 32.6537 166.095 29.2793 162.721C25.9049 159.347 24.0086 154.77 24.0072 149.998C24.0058 145.226 25.8996 140.649 29.272 137.272L77.9706 95.2084L77.9695 95.2089C73.1455 86.4651 71.1676 76.4347 72.3112 66.5141C73.4547 56.5935 77.6628 47.2762 84.3497 39.8592C91.0366 32.4422 99.8695 27.2946 109.619 25.1328C119.369 22.971 129.55 23.9026 138.745 27.798L138.743 27.8011Z" fill="#624CE0"/>
<path fill-rule="evenodd" clip-rule="evenodd" d="M133.302 28.9999C125.861 26.701 117.923 26.3644 110.268 28.0617C101.128 30.0884 92.847 34.9144 86.5778 41.8681C80.3087 48.8217 76.3635 57.5568 75.2914 66.8577C74.2225 76.131 76.0627 85.5066 80.5563 93.6871C81.2872 94.9275 81.0342 96.5264 79.9316 97.4787L31.3204 139.467C28.5564 142.274 27.0061 146.056 27.0072 149.997C27.0083 153.974 28.5886 157.788 31.4006 160.6C34.2126 163.412 38.0262 164.992 42.0029 164.993C45.9446 164.994 49.7268 163.444 52.533 160.68L94.5221 112.068C95.4817 110.957 97.0935 110.712 98.333 111.455C106.509 115.941 115.877 117.777 125.143 116.709C134.444 115.637 143.179 111.692 150.132 105.423C157.086 99.1534 161.912 90.8723 163.939 81.7319C165.636 74.0776 165.299 66.1397 163 58.6984L134.849 86.8497C134.14 87.5589 133.123 87.8668 132.14 87.6701L110.926 83.4274C109.739 83.1899 108.81 82.2616 108.573 81.074L104.33 59.8608C104.134 58.8773 104.441 57.8604 105.151 57.1512L133.302 28.9999ZM97.5108 117.787C106.272 122.087 116.101 123.791 125.83 122.669C136.37 121.454 146.27 116.983 154.15 109.879C162.03 102.774 167.5 93.3893 169.796 83.0307C172.093 72.6721 171.103 61.8551 166.965 52.0854C166.654 51.3527 166.066 50.7734 165.328 50.4748C164.59 50.1762 163.764 50.1829 163.032 50.4934L163.029 50.4947C162.674 50.6453 162.351 50.8629 162.078 51.1356L131.742 81.4717L114.064 77.9362L110.529 60.2585L140.865 29.9224C141.134 29.6536 141.349 29.3361 141.499 28.9869L141.5 28.9838C141.816 28.2503 141.826 27.4211 141.529 26.6801C141.231 25.939 140.65 25.3472 139.915 25.0357C130.145 20.8969 119.328 19.9071 108.97 22.2039C98.611 24.5008 89.2262 29.9701 82.1215 37.8504C75.0169 45.7308 70.5459 55.6302 69.3309 66.1706C68.2094 75.8998 69.9135 85.7284 74.2133 94.4896L27.311 135.002C27.2554 135.05 27.2015 135.1 27.1495 135.152C23.215 139.091 21.0056 144.432 21.0072 149.999C21.0088 155.567 23.2212 160.906 27.158 164.842C31.0948 168.779 36.4338 170.992 42.0012 170.993C47.5687 170.995 52.9089 168.785 56.848 164.851C56.9 164.799 56.9501 164.745 56.9982 164.689L97.5108 117.787Z" fill="#624CE0"/>
</svg>
