<svg width="120" height="48" viewBox="0 0 120 48" fill="none" xmlns="http://www.w3.org/2000/svg">
<path d="M8.83593 13.1109C6.51535 14.0775 3.96363 16.8051 3.15823 20.2359C2.13639 24.5791 6.38468 26.4132 6.73179 25.8148C7.14021 25.1051 5.9681 24.8669 5.72875 22.6149C5.42079 19.7027 6.77755 16.4491 8.48962 15.0214C8.80897 14.7604 8.79347 15.1287 8.79347 15.8076C8.79347 17.032 8.72486 27.9863 8.72486 30.2733C8.72486 33.3692 8.59744 34.344 8.36219 35.3066C8.13099 36.2855 7.75693 36.9456 8.03873 37.2025C8.35809 37.4862 9.71484 36.8106 10.5014 35.718C11.4424 34.409 11.774 32.8359 11.8353 31.1286C11.9047 29.0725 11.9006 25.8034 11.9047 23.9425C11.9047 22.2311 11.9316 17.2279 11.8777 14.2157C11.8622 13.4792 9.80385 12.7076 8.83593 13.1109ZM115.825 29.3636C115.493 29.3636 115.336 29.7091 115.208 30.2888C114.769 32.3107 114.307 32.7668 113.709 32.7668C113.042 32.7668 112.444 31.7661 112.287 29.7628C112.167 28.1896 112.186 25.2889 112.34 22.4035C112.372 21.8125 112.209 21.2263 110.613 20.6467C109.923 20.4011 108.925 20.0328 108.428 21.2296C107.021 24.6027 106.473 27.288 106.342 28.3742C106.339 28.4311 106.269 28.4393 106.257 28.3091C106.177 27.4376 105.991 25.8531 105.968 22.5222C105.96 21.8783 105.826 21.3214 105.101 20.8686C104.635 20.5775 103.216 20.0556 102.703 20.6735C102.263 21.1799 101.751 22.5385 101.215 24.1498C100.783 25.462 100.483 26.3523 100.483 26.3523C100.483 26.3523 100.486 22.8141 100.494 21.471C100.494 20.9645 100.147 20.7962 100.043 20.7653C99.5687 20.6271 98.6319 20.4011 98.239 20.4011C97.7497 20.4011 97.6337 20.6735 97.6337 21.0686C97.6337 21.1182 97.5529 25.7222 97.5529 28.9417V29.3945C97.2866 30.8758 96.4085 32.8863 95.4561 32.8863C94.5037 32.8863 94.0528 32.0457 94.0528 28.2091C94.0528 25.9718 94.1222 24.9978 94.1532 23.3783C94.1721 22.4458 94.2104 21.7287 94.2072 21.5637C94.199 21.0686 93.3315 20.8149 92.9305 20.7231C92.5261 20.6271 92.1749 20.5962 91.898 20.6076C91.5125 20.6312 91.2389 20.884 91.2389 21.2377V21.7743C90.7414 20.9921 89.9352 20.4467 89.3961 20.2897C87.9545 19.8637 86.4466 20.2434 85.3096 21.8238C84.4078 23.0832 83.8638 24.5059 83.6523 26.5515C83.4938 28.0482 83.5444 29.5636 83.8255 30.8449C83.4864 32.2912 82.8616 32.8863 82.1795 32.8863C81.1847 32.8863 80.4683 31.2742 80.5492 28.4847C80.6072 26.6515 80.9731 25.3661 81.3775 23.5011C81.5514 22.7068 81.4085 22.293 81.058 21.8897C80.7379 21.5287 80.0518 21.3409 79.0691 21.5669C78.3708 21.732 77.3652 21.9084 76.4512 22.0433C76.4512 22.0433 76.5051 21.8238 76.5517 21.4369C76.7869 19.4068 74.5701 19.5718 73.8644 20.2206C73.4405 20.6076 73.1513 21.0645 73.0435 21.8857C72.8703 23.1905 73.9379 23.8043 73.9379 23.8043C73.5875 25.4003 72.7314 27.4872 71.8411 28.9953C71.3665 29.8051 71.0038 30.4002 70.5342 31.0368C70.5299 30.8026 70.5299 30.5644 70.5299 30.3311C70.5218 26.9734 70.5642 24.3303 70.5838 23.3783C70.6034 22.4458 70.6419 21.7474 70.6419 21.5824C70.6337 21.2214 70.4221 21.0799 69.9745 20.9109C69.5816 20.758 69.1152 20.6467 68.6333 20.6076C68.028 20.5621 67.658 20.884 67.6695 21.2637V21.7743C67.1687 20.9921 66.3625 20.4467 65.8308 20.2897C64.385 19.8637 62.878 20.2434 61.741 21.8238C60.8425 23.0832 60.2486 24.8442 60.0788 26.532C59.9252 28.1132 59.9521 29.4481 60.1678 30.5766C59.9366 31.7042 59.2775 32.8863 58.5301 32.8863C57.5776 32.8863 57.0336 32.0457 57.0336 28.2091C57.0336 25.9718 57.1031 24.9978 57.1382 23.3783C57.157 22.4458 57.1921 21.7287 57.188 21.5637C57.1839 21.0686 56.3173 20.8149 55.9122 20.7231C55.4923 20.6238 55.1256 20.593 54.8478 20.6076C54.4778 20.6385 54.2197 20.9645 54.2197 21.2141V21.7743C53.719 20.9921 52.9128 20.4467 52.377 20.2897C50.9353 19.8637 49.4397 20.2515 48.2945 21.8238C47.5472 22.8491 46.9419 23.9881 46.6299 26.5132C46.5449 27.2425 46.5025 27.9246 46.5065 28.562C46.2092 30.3725 44.895 32.4603 43.8233 32.4603C43.1911 32.4603 42.5899 31.2473 42.5899 28.6579C42.5899 25.2125 42.8055 20.3011 42.8439 19.8255C42.8439 19.8255 44.2006 19.8019 44.4669 19.7987C45.1416 19.7946 45.7583 19.8101 46.6568 19.7637C47.1118 19.741 47.5472 18.1255 47.0767 17.9223C46.8684 17.8336 45.3728 17.7531 44.7789 17.7418C44.2783 17.7304 42.8938 17.6272 42.8938 17.6272C42.8938 17.6272 43.0179 14.3695 43.0449 14.028C43.0677 13.7361 42.6977 13.5906 42.4821 13.502C41.9609 13.28 41.4945 13.176 40.9473 13.0646C40.1803 12.9077 39.8372 13.0614 39.7719 13.7012C39.6714 14.6727 39.6175 17.5199 39.6175 17.5199C39.0547 17.5199 37.1467 17.4077 36.5871 17.4077C36.0676 17.4077 35.504 19.6336 36.2253 19.6604C37.0543 19.6914 38.4919 19.7223 39.4476 19.7482C39.4476 19.7482 39.4051 24.7409 39.4051 26.2791V26.7547C38.8775 29.4823 37.0306 30.9563 37.0306 30.9563C37.4276 29.149 36.6181 27.7945 35.1536 26.6515C34.6137 26.2254 33.5502 25.423 32.3585 24.5523C32.3585 24.5523 33.0486 23.8734 33.6613 22.5149C34.0934 21.5515 34.113 20.4434 33.0486 20.2011C31.2909 19.7987 29.8451 21.084 29.4097 22.4572C29.0781 23.5165 29.2521 24.3067 29.9105 25.1238L30.0607 25.3084C29.6679 26.0677 29.1206 27.0921 28.6615 27.8864C27.3783 30.0929 26.4104 31.8351 25.6818 31.8351C25.0961 31.8351 25.1035 30.0661 25.1035 28.4083C25.1035 26.9807 25.2113 24.8287 25.2963 22.6035C25.3232 21.8702 24.9532 21.4482 24.3332 21.0686C23.955 20.8385 23.1529 20.3857 22.6865 20.3857C21.9931 20.3857 19.9804 20.4775 18.0805 25.945C17.8411 26.636 17.3707 27.8905 17.3707 27.8905L17.4132 21.3141C17.4132 21.1604 17.3323 21.0149 17.1436 20.9109C16.8234 20.7385 15.9641 20.3857 15.2086 20.3857C14.8418 20.3857 14.6605 20.5548 14.6605 20.8881L14.5992 31.1709C14.5992 31.9539 14.618 32.8668 14.6956 33.266C14.7724 33.6652 14.8998 33.9912 15.0542 34.1863C15.2086 34.3749 15.3891 34.5205 15.6823 34.5855C15.956 34.6432 17.463 34.831 17.5406 34.2595C17.637 33.5725 17.6402 32.8327 18.4309 30.0588C19.6643 25.7457 21.2685 23.6433 22.0241 22.8946C22.1588 22.7645 22.3092 22.7564 22.301 22.9718C22.2667 23.9189 22.1548 26.2791 22.078 28.2856C21.8738 33.6612 22.8523 34.6546 24.2597 34.6546C25.3314 34.6546 26.8425 33.592 28.4655 30.9067C29.4792 29.2295 30.4585 27.5913 31.1676 26.4059C31.6535 26.8579 32.2081 27.3457 32.7595 27.8677C34.0435 29.0758 34.4634 30.227 34.1824 31.3173C33.97 32.153 33.1647 33.0124 31.7344 32.1766C31.3178 31.9343 31.1406 31.7465 30.7207 31.4701C30.4969 31.3205 30.1498 31.2783 29.9456 31.4319C29.4057 31.8351 29.101 32.3449 28.9237 32.9782C28.7579 33.5961 29.3787 33.918 30.0223 34.2018C30.5737 34.4514 31.7614 34.67 32.5202 34.6969C35.477 34.7969 37.8442 33.2774 39.4901 29.3636C39.7874 32.7441 41.0396 34.6587 43.218 34.6587C44.6785 34.6587 46.1398 32.7823 46.7802 30.9368C46.9607 31.6888 47.2343 32.3408 47.5856 32.8977C49.2666 35.5449 52.5273 34.9774 54.1617 32.7286C54.6706 32.0303 54.7482 31.7807 54.7482 31.7807C54.9867 33.9034 56.7061 34.6505 57.6896 34.6505C58.7955 34.6505 59.9293 34.1294 60.7265 32.3408C60.8229 32.5368 60.9234 32.7213 61.0393 32.8977C62.7162 35.5449 65.977 34.9774 67.6155 32.7286C67.6891 32.6173 67.7585 32.5254 67.8156 32.4368L67.8663 33.8335C67.8663 33.8335 66.9294 34.6855 66.3552 35.2107C63.8304 37.5172 61.9101 39.2668 61.768 41.3001C61.5907 43.8976 63.703 44.861 65.3064 44.987C67.0029 45.122 68.4602 44.1895 69.3537 42.8773C70.1403 41.7261 70.6573 39.2513 70.619 36.8034C70.6035 35.8213 70.5798 34.5782 70.5569 33.2392C71.4473 32.2189 72.4495 30.9213 73.3676 29.4027C74.3731 27.7523 75.4447 25.5303 75.992 23.8003C75.992 23.8003 76.9289 23.8084 77.9238 23.7466C78.2439 23.7271 78.3363 23.793 78.2742 24.023C78.2047 24.3027 77.0179 28.8652 78.101 31.9042C78.8452 33.9831 80.5139 34.6546 81.5088 34.6546C82.6687 34.6546 83.7795 33.7798 84.3725 32.4831C84.446 32.6254 84.5195 32.7668 84.6045 32.8977C86.2814 35.5449 89.5307 34.9733 91.1807 32.7286C91.5548 32.2189 91.7631 31.7807 91.7631 31.7807C92.1176 33.9798 93.837 34.6587 94.8196 34.6587C95.8488 34.6587 96.82 34.2408 97.6107 32.3831C97.6418 33.201 97.6916 33.8685 97.7765 34.079C97.8263 34.2099 98.1195 34.3709 98.3278 34.4514C99.268 34.7969 100.224 34.6319 100.575 34.5587C100.822 34.5091 101.014 34.3172 101.038 33.8107C101.107 32.4831 101.064 30.2539 101.469 28.5929C102.151 25.8149 102.784 24.7369 103.084 24.2035C103.251 23.9035 103.443 23.8539 103.447 24.1686C103.458 24.8092 103.493 26.6896 103.759 29.2222C103.948 31.079 104.206 32.1798 104.407 32.5295C104.969 33.5229 105.671 33.5693 106.238 33.5693C106.601 33.5693 107.356 33.4693 107.29 32.8359C107.256 32.5295 107.314 30.6222 107.98 27.8832C108.42 26.0913 109.148 24.4759 109.41 23.8848C109.511 23.6661 109.553 23.8352 109.553 23.8694C109.495 25.1011 109.372 29.1335 109.873 31.3359C110.56 34.3254 112.536 34.6587 113.227 34.6587C114.695 34.6587 115.902 33.5457 116.307 30.6148C116.407 29.9083 116.26 29.3636 115.825 29.3636H115.825ZM54.1887 27.553C54.1078 29.1026 53.8031 30.4002 53.3179 31.34C52.4308 33.0473 50.6853 33.5846 49.9175 31.1253C49.3588 29.3489 49.5475 26.9237 49.7828 25.6148C50.1217 23.6734 50.9818 22.3002 52.323 22.4262C53.6953 22.5612 54.3659 24.3222 54.1887 27.553ZM67.6385 27.5758C67.5617 29.0375 67.1803 30.5107 66.7637 31.34C65.9044 33.0587 64.1074 33.596 63.3633 31.1253C62.8552 29.4327 62.9745 27.2498 63.2285 25.8758C63.5569 24.088 64.3467 22.4262 65.7696 22.4262C67.1533 22.4262 67.8354 23.9384 67.6385 27.5758ZM67.9897 37.5667C67.9701 40.2415 67.5503 42.5821 66.6477 43.265C65.3604 44.2317 63.6296 43.5025 63.9881 41.5537C64.3043 39.8269 65.8039 38.0659 67.9938 35.9131C67.9938 35.9131 68.0012 36.4041 67.9895 37.5667H67.9897ZM91.2119 27.5912C91.1342 29.1993 90.7757 30.4538 90.3329 31.34C89.4728 33.0587 87.6921 33.5919 86.9325 31.1253C86.52 29.7782 86.5004 27.5294 86.7977 25.6539C87.0983 23.7425 87.9429 22.3002 89.3381 22.4262C90.7177 22.5571 91.3621 24.3222 91.2119 27.5912Z" fill="#C5C5C5"/>
</svg>
