<svg xmlns="http://www.w3.org/2000/svg" width="112" height="40" fill="none" xmlns:v="https://vecta.io/nano"><g clip-path="url(#A)" fill="#fff"><path d="M45.911 19.548c0 1.341-.326 2.356-.955 3.069-.64.689-1.45 1.039-2.513 1.039-.93 0-1.667-.254-2.187-.749-.52-.483-.773-1.269-.773-2.332l.024-7.745-3.081-.012-.024 7.927c0 1.136.217 2.139.665 2.973a4.88 4.88 0 0 0 1.873 1.933c.798.459 1.704.677 2.707.689h.024c1.245 0 2.199-.242 2.852-.725.604-.447 1.051-.93 1.317-1.438h.109v1.933l3.021.012.048-13.267-3.081-.012-.024 6.706zm10.984 4.23h-.133l-3.395-10.899-3.263-.012 4.435 13.292 4.567.012 4.519-13.255-3.263-.012-3.468 10.875zM73.678 13.41c-1.039-.556-2.223-.846-3.54-.846h-.024c-1.305 0-2.477.278-3.504.822a6.11 6.11 0 0 0-2.453 2.344c-.592 1.003-.906 2.223-.906 3.601v.399c0 1.39.29 2.61.87 3.637.592 1.015 1.402 1.813 2.441 2.356 1.015.544 2.211.822 3.528.822h.024c1.305 0 2.477-.266 3.516-.81a6.06 6.06 0 0 0 2.465-2.344c.592-1.015.906-2.223.906-3.613v-.399c0-1.39-.29-2.598-.87-3.613-.592-.991-1.426-1.788-2.453-2.356zm-3.577 10.368c-1.112 0-2.018-.375-2.719-1.087-.689-.725-1.051-1.728-1.051-3.009v-.242c0-1.281.375-2.284 1.063-3.009.689-.713 1.607-1.063 2.707-1.063v-.193l.012.193c1.136 0 2.066.375 2.755 1.087.689.725 1.039 1.728 1.039 3.009v.242c0 1.281-.375 2.284-1.063 3.009-.689.713-1.619 1.063-2.743 1.063zm18.778-9.039h-.109c-.193-.326-.471-.652-.81-.955-.387-.338-.87-.616-1.462-.846-.592-.218-1.317-.326-2.175-.338H84.3c-1.112 0-2.127.266-3.057.797s-1.692 1.329-2.248 2.344-.846 2.247-.846 3.649v.399c0 1.414.278 2.658.846 3.661.556 1.015 1.317 1.8 2.248 2.344a6.05 6.05 0 0 0 3.045.822h.024c1.269 0 2.272-.242 2.973-.713.652-.447 1.172-.93 1.51-1.474h.121v1.837l3.021.012.06-18.669-3.081-.012-.036 7.141zm-3.818.459l.012.193c1.124 0 2.054.374 2.755 1.075.713.713 1.063 1.74 1.063 3.057v.242c0 1.329-.375 2.356-1.087 3.069s-1.643 1.063-2.743 1.063c-1.087 0-2.006-.375-2.719-1.075-.713-.713-1.075-1.74-1.063-3.069v-.242c0-1.317.375-2.332 1.088-3.045s1.619-1.063 2.719-1.063l-.024-.205zm21.049.677a5.98 5.98 0 0 0-2.453-2.356c-1.039-.556-2.223-.846-3.54-.846h-.024c-1.305 0-2.477.278-3.504.822a6.11 6.11 0 0 0-2.453 2.344c-.592 1.003-.906 2.223-.906 3.601v.399c0 1.39.29 2.61.87 3.637.592 1.015 1.402 1.813 2.441 2.356 1.015.544 2.211.822 3.529.822h.024c1.305 0 2.477-.266 3.516-.81a6.06 6.06 0 0 0 2.465-2.344c.592-1.015.894-2.223.894-3.613V19.5c.024-1.39-.266-2.598-.858-3.625zm-6.029 7.999c-1.112 0-2.018-.375-2.719-1.087-.689-.725-1.051-1.728-1.051-3.009v-.242c0-1.281.375-2.284 1.063-3.009.689-.713 1.607-1.063 2.707-1.063v-.193l.012.193c1.136 0 2.066.374 2.755 1.088.689.725 1.039 1.728 1.039 3.009v.242c0 1.281-.375 2.284-1.063 3.009-.689.713-1.607 1.063-2.743 1.063zm-79.315 9.594c4.725-1.486 7.927-5.873 7.915-10.839l-.06-15.201a2.44 2.44 0 0 0-3.166-2.32L7.692 10.703A2.44 2.44 0 0 0 6 13.036l.024 9.667c.036 7.637 7.455 13.062 14.742 10.766z"/></g><defs><clipPath id="A"><path fill="#fff" transform="translate(6 5)" d="M0 0h100.98v29H0z"/></clipPath></defs></svg>