<svg width="192" height="192" viewBox="0 0 192 192" fill="none" xmlns="http://www.w3.org/2000/svg">
<path opacity="0.2" d="M48 30L48 162C48 168.627 53.3726 174 60 174L132 174C138.627 174 144 168.627 144 162L144 30C144 23.3726 138.627 18 132 18L60 18C53.3726 18 48 23.3726 48 30Z" fill="#624CE0"/>
<path fill-rule="evenodd" clip-rule="evenodd" d="M51 162C51 166.971 55.0294 171 60 171L132 171C136.971 171 141 166.971 141 162L141 30C141 25.0294 136.971 21 132 21L60 21C55.0295 21 51 25.0294 51 30L51 162ZM60 177C51.7157 177 45 170.284 45 162L45 30C45 21.7157 51.7157 15 60 15L132 15C140.284 15 147 21.7157 147 30L147 162C147 170.284 140.284 177 132 177L60 177Z" fill="#624CE0"/>
<path d="M96 138C91.0294 138 87 142.029 87 147C87 151.971 91.0294 156 96 156C100.971 156 105 151.971 105 147C105 142.029 100.971 138 96 138Z" fill="#624CE0"/>
</svg>
