<svg width="192" height="192" viewBox="0 0 192 192" fill="none" xmlns="http://www.w3.org/2000/svg">
<path opacity="0.2" d="M138 30H96L59.1818 78L96 168L180 78L138 30Z" fill="#624CE0"/>
<path fill-rule="evenodd" clip-rule="evenodd" d="M51.7423 28.0245C52.3119 27.3734 53.1349 27 54 27H138C138.865 27 139.688 27.3734 140.258 28.0245L182.258 76.0245C183.272 77.1832 183.244 78.9214 182.193 80.047L98.1932 170.047C97.6258 170.655 96.8315 171 96 171C95.1685 171 94.3742 170.655 93.8068 170.047L9.80684 80.047C8.75628 78.9214 8.72838 77.1832 9.74227 76.0245L51.7423 28.0245ZM55.3613 33L16.0431 77.9351L96 163.603L175.957 77.9351L136.639 33H55.3613Z" fill="#624CE0"/>
<path fill-rule="evenodd" clip-rule="evenodd" d="M96 27C96.9329 27 97.8127 27.434 98.3804 28.1741L135.199 76.1741C135.848 77.0207 135.999 78.1484 135.595 79.1359L98.7767 169.136C98.3154 170.263 97.2182 171 96 171C94.7819 171 93.6846 170.263 93.2234 169.136L56.4051 79.1359C56.0012 78.1484 56.1521 77.0207 56.8014 76.1741L93.6197 28.1741C94.1874 27.434 95.0672 27 96 27ZM62.6108 78.4588L96 160.077L129.389 78.4588L96 34.9292L62.6108 78.4588Z" fill="#624CE0"/>
<path fill-rule="evenodd" clip-rule="evenodd" d="M9 78C9 76.3431 10.3431 75 12 75H180C181.657 75 183 76.3431 183 78C183 79.6569 181.657 81 180 81H12C10.3431 81 9 79.6569 9 78Z" fill="#624CE0"/>
</svg>
