<svg width="112" height="48" viewBox="0 0 112 48" fill="none" xmlns="http://www.w3.org/2000/svg">
<path d="M20.2581 15.0005H12.9609C12.4615 15.0005 12.0369 15.3633 11.959 15.8562L9.00766 34.5681C8.94898 34.9373 9.23493 35.2702 9.60945 35.2702H13.0932C13.5925 35.2702 14.0172 34.9075 14.0951 34.4134L14.8911 29.3665C14.9679 28.8725 15.3936 28.5097 15.8919 28.5097H18.202C23.0088 28.5097 25.783 26.1837 26.5075 21.5743C26.834 19.5576 26.5213 17.9731 25.577 16.8635C24.5399 15.645 22.7004 15.0005 20.2581 15.0005ZM21.0999 21.8346C20.7009 24.453 18.7003 24.453 16.7658 24.453H15.6646L16.4372 19.563C16.483 19.2674 16.7391 19.0497 17.0379 19.0497H17.5426C18.8603 19.0497 20.1034 19.0497 20.7457 19.8009C21.1287 20.249 21.2461 20.9149 21.0999 21.8346Z" fill="#C5C5C5"/>
<path d="M42.0708 21.751H38.5764C38.2787 21.751 38.0216 21.9687 37.9757 22.2642L37.821 23.2416L37.5766 22.8874C36.8201 21.7894 35.1332 21.4224 33.4495 21.4224C29.588 21.4224 26.29 24.347 25.6476 28.4496C25.3137 30.4961 25.7885 32.453 26.9494 33.8177C28.0142 35.0725 29.5379 35.5953 31.3507 35.5953C34.4621 35.5953 36.1874 33.5947 36.1874 33.5947L36.0316 34.5656C35.9729 34.937 36.2589 35.2699 36.6313 35.2699H39.7789C40.2793 35.2699 40.7019 34.9071 40.7808 34.4131L42.6694 22.4531C42.7292 22.085 42.4443 21.751 42.0708 21.751ZM37.2 28.552C36.8628 30.5484 35.2783 31.8885 33.2574 31.8885C32.2427 31.8885 31.4318 31.5631 30.9111 30.9464C30.3947 30.3339 30.1984 29.4622 30.3627 28.4912C30.6774 26.5119 32.2886 25.128 34.2786 25.128C35.2709 25.128 36.0775 25.4577 36.6089 26.0798C37.1413 26.7083 37.3526 27.5853 37.2 28.552Z" fill="#C5C5C5"/>
<path d="M60.6817 21.7515H57.1702C56.8351 21.7515 56.5204 21.9179 56.3304 22.1964L51.4873 29.3303L49.4344 22.4749C49.3053 22.046 48.9095 21.7515 48.4613 21.7515H45.0107C44.5913 21.7515 44.3001 22.1612 44.4334 22.556L48.3013 33.9067L44.665 39.04C44.379 39.4444 44.6671 40.0003 45.1611 40.0003H48.6683C49.0012 40.0003 49.3128 39.8381 49.5017 39.565L61.181 22.7064C61.4606 22.3031 61.1735 21.7515 60.6817 21.7515Z" fill="#C5C5C5"/>
<path d="M72.307 15.0005H65.0088C64.5105 15.0005 64.0858 15.3633 64.0079 15.8562L61.0566 34.5681C60.9979 34.9373 61.2839 35.2702 61.6563 35.2702H65.4014C65.7493 35.2702 66.047 35.0163 66.1014 34.6706L66.939 29.3665C67.0158 28.8725 67.4415 28.5097 67.9398 28.5097H70.2488C75.0567 28.5097 77.8298 26.1837 78.5554 21.5743C78.883 19.5576 78.5682 17.9731 77.6239 16.8635C76.5878 15.645 74.7494 15.0005 72.307 15.0005ZM73.1489 21.8346C72.7509 24.453 70.7503 24.453 68.8148 24.453H67.7147L68.4883 19.563C68.5341 19.2674 68.7881 19.0497 69.0879 19.0497H69.5926C70.9093 19.0497 72.1534 19.0497 72.7957 19.8009C73.1788 20.249 73.2951 20.9149 73.1489 21.8346Z" fill="#C5C5C5"/>
<path d="M94.1189 21.751H90.6266C90.3268 21.751 90.0718 21.9687 90.027 22.2642L89.8723 23.2416L89.6269 22.8874C88.8704 21.7894 87.1845 21.4224 85.5008 21.4224C81.6393 21.4224 78.3423 24.347 77.6999 28.4496C77.367 30.4961 77.8397 32.453 79.0006 33.8177C80.0676 35.0725 81.5892 35.5953 83.402 35.5953C86.5134 35.5953 88.2387 33.5947 88.2387 33.5947L88.0829 34.5656C88.0242 34.937 88.3102 35.2699 88.6847 35.2699H91.8313C92.3296 35.2699 92.7542 34.9071 92.8321 34.4131L94.7218 22.4531C94.7794 22.085 94.4934 21.751 94.1189 21.751ZM89.2481 28.552C88.913 30.5484 87.3264 31.8885 85.3055 31.8885C84.2929 31.8885 83.4799 31.5631 82.9592 30.9464C82.4428 30.3339 82.2486 29.4622 82.4107 28.4912C82.7276 26.5119 84.3367 25.128 86.3266 25.128C87.3189 25.128 88.1256 25.4577 88.657 26.0798C89.1915 26.7083 89.4028 27.5853 89.2481 28.552Z" fill="#C5C5C5"/>
<path d="M98.2386 15.5143L95.2435 34.5687C95.1848 34.9379 95.4708 35.2708 95.8432 35.2708H98.8542C99.3546 35.2708 99.7793 34.908 99.8561 34.414L102.81 15.7032C102.868 15.334 102.582 15 102.21 15H98.8382C98.5405 15.0011 98.2844 15.2187 98.2386 15.5143Z" fill="#C5C5C5"/>
</svg>
