<svg width="192" height="192" viewBox="0 0 192 192" fill="none" xmlns="http://www.w3.org/2000/svg">
<path opacity="0.2" d="M96 96C132.451 96 162 79.8823 162 60C162 40.1177 132.451 24 96 24C59.5492 24 30 40.1177 30 60C30 79.8823 59.5492 96 96 96Z" fill="#624CE0"/>
<path fill-rule="evenodd" clip-rule="evenodd" d="M47.8944 31.9104C60.3581 25.1121 77.3716 21 96 21C114.629 21 131.642 25.1121 144.106 31.9105C156.456 38.6469 165 48.4464 165 60C165 71.5536 156.456 81.3531 144.106 88.0895C131.642 94.8879 114.629 99 96 99C77.3716 99 60.3581 94.8879 47.8944 88.0895C35.5442 81.3531 27 71.5536 27 60C27 48.4464 35.5442 38.6469 47.8944 31.9104ZM50.7675 37.1778C39.2304 43.4708 33 51.6713 33 60C33 68.3287 39.2304 76.5292 50.7675 82.8222C62.1911 89.0532 78.1776 93 96 93C113.822 93 129.809 89.0532 141.233 82.8222C152.77 76.5292 159 68.3287 159 60C159 51.6713 152.77 43.4708 141.233 37.1778C129.809 30.9468 113.822 27 96 27C78.1776 27 62.1911 30.9468 50.7675 37.1778Z" fill="#624CE0"/>
<path fill-rule="evenodd" clip-rule="evenodd" d="M30 57C31.6569 57 33 58.3431 33 60V96C33 104.329 39.2304 112.529 50.7675 118.822C62.1911 125.053 78.1777 129 96 129C113.822 129 129.809 125.053 141.233 118.822C152.77 112.529 159 104.329 159 96V60C159 58.3431 160.343 57 162 57C163.657 57 165 58.3431 165 60V96C165 107.553 156.456 117.353 144.106 124.089C131.642 130.888 114.629 135 96 135C77.3715 135 60.3581 130.888 47.8944 124.089C35.5442 117.353 27 107.553 27 96V60C27 58.3431 28.3431 57 30 57Z" fill="#624CE0"/>
<path fill-rule="evenodd" clip-rule="evenodd" d="M30 93C31.6569 93 33 94.3431 33 96V132C33 140.329 39.2304 148.529 50.7675 154.822C62.1911 161.053 78.1777 165 96 165C113.822 165 129.809 161.053 141.233 154.822C152.77 148.529 159 140.329 159 132V96C159 94.3431 160.343 93 162 93C163.657 93 165 94.3431 165 96V132C165 143.553 156.456 153.353 144.106 160.089C131.642 166.888 114.629 171 96 171C77.3715 171 60.3581 166.888 47.8944 160.089C35.5442 153.353 27 143.553 27 132V96C27 94.3431 28.3431 93 30 93Z" fill="#624CE0"/>
</svg>
