<svg width="72" height="72" viewBox="0 0 72 72" fill="none" xmlns="http://www.w3.org/2000/svg">
<circle cx="36" cy="36" r="36" fill="#060606"/>
<path opacity="0.2" d="M35 29C36.6569 29 38 27.6569 38 26C38 24.3431 36.6569 23 35 23C33.3431 23 32 24.3431 32 26C32 27.6569 33.3431 29 35 29Z" fill="white"/>
<path opacity="0.2" d="M25 38C26.6569 38 28 36.6569 28 35C28 33.3431 26.6569 32 25 32C23.3431 32 22 33.3431 22 35C22 36.6569 23.3431 38 25 38Z" fill="white"/>
<path opacity="0.2" d="M40 49C41.6569 49 43 47.6569 43 46C43 44.3431 41.6569 43 40 43C38.3431 43 37 44.3431 37 46C37 47.6569 38.3431 49 40 49Z" fill="white"/>
<path opacity="0.2" d="M46 32C47.6569 32 49 30.6569 49 29C49 27.3431 47.6569 26 46 26C44.3431 26 43 27.3431 43 29C43 30.6569 44.3431 32 46 32Z" fill="white"/>
<path d="M35 29C36.6569 29 38 27.6569 38 26C38 24.3431 36.6569 23 35 23C33.3431 23 32 24.3431 32 26C32 27.6569 33.3431 29 35 29Z" stroke="white" stroke-width="2" stroke-linecap="round" stroke-linejoin="round"/>
<path d="M25 38C26.6569 38 28 36.6569 28 35C28 33.3431 26.6569 32 25 32C23.3431 32 22 33.3431 22 35C22 36.6569 23.3431 38 25 38Z" stroke="white" stroke-width="2" stroke-linecap="round" stroke-linejoin="round"/>
<path d="M40 49C41.6569 49 43 47.6569 43 46C43 44.3431 41.6569 43 40 43C38.3431 43 37 44.3431 37 46C37 47.6569 38.3431 49 40 49Z" stroke="white" stroke-width="2" stroke-linecap="round" stroke-linejoin="round"/>
<path d="M46 32C47.6569 32 49 30.6569 49 29C49 27.3431 47.6569 26 46 26C44.3431 26 43 27.3431 43 29C43 30.6569 44.3431 32 46 32Z" stroke="white" stroke-width="2" stroke-linecap="round" stroke-linejoin="round"/>
<path d="M43.1057 28.2105L37.8936 26.7891" stroke="white" stroke-width="2" stroke-linecap="round" stroke-linejoin="round"/>
<path d="M32.7697 28.0068L27.2295 32.9931" stroke="white" stroke-width="2" stroke-linecap="round" stroke-linejoin="round"/>
<path d="M27.4199 36.7744L37.5808 44.2257" stroke="white" stroke-width="2" stroke-linecap="round" stroke-linejoin="round"/>
<path d="M40.999 43.1705L45.0017 31.8296" stroke="white" stroke-width="2" stroke-linecap="round" stroke-linejoin="round"/>
</svg>
