<svg width="72" height="72" viewBox="0 0 72 72" fill="none" xmlns="http://www.w3.org/2000/svg">
<circle cx="36" cy="36" r="36" fill="#060606"/>
<path opacity="0.2" d="M30 36C30 34.0222 30.5865 32.0888 31.6853 30.4443C32.7841 28.7998 34.3459 27.5181 36.1732 26.7612C38.0005 26.0043 40.0111 25.8063 41.9509 26.1922C43.8907 26.578 45.6726 27.5304 47.0711 28.9289C48.4696 30.3275 49.422 32.1093 49.8079 34.0491C50.1937 35.9889 49.9957 37.9996 49.2388 39.8268C48.4819 41.6541 47.2002 43.2159 45.5557 44.3147C43.9112 45.4135 41.9778 46 40 46H29C28.0073 45.999 27.0262 45.7869 26.1217 45.3778C25.2173 44.9686 24.4102 44.3718 23.754 43.6269C23.0978 42.8819 22.6076 42.006 22.3159 41.0571C22.0242 40.1082 21.9376 39.1081 22.062 38.1233C22.1863 37.1384 22.5187 36.1912 23.0371 35.3446C23.5555 34.498 24.248 33.7713 25.0687 33.2129C25.8894 32.6544 26.8195 32.2768 27.7973 32.1053C28.7751 31.9338 29.7781 31.9722 30.7399 32.2179" fill="white"/>
<path d="M34.7568 41.7573L38.9995 45.9999L43.2421 41.7573" stroke="white" stroke-width="2" stroke-linecap="round" stroke-linejoin="round"/>
<path d="M38.9995 36V46" stroke="white" stroke-width="2" stroke-linecap="round" stroke-linejoin="round"/>
<path d="M31.9991 46H28.999C28.0063 45.999 27.0252 45.7869 26.1207 45.3778C25.2163 44.9686 24.4092 44.3718 23.753 43.6268C23.0969 42.8819 22.6067 42.0059 22.3149 41.0571C22.0232 40.1082 21.9366 39.1081 22.061 38.1232C22.1853 37.1384 22.5177 36.1912 23.0361 35.3446C23.5545 34.498 24.247 33.7713 25.0677 33.2128C25.8884 32.6544 26.8185 32.2768 27.7963 32.1053C28.7741 31.9338 29.7772 31.9722 30.739 32.2179" stroke="white" stroke-width="2" stroke-linecap="round" stroke-linejoin="round"/>
<path d="M29.9995 36C29.9997 34.4155 30.3763 32.8538 31.0984 31.4435C31.8206 30.0331 32.8675 28.8146 34.1529 27.8882C35.4383 26.9618 36.9255 26.3542 38.4918 26.1153C40.0582 25.8764 41.6589 26.0131 43.162 26.5142C44.6651 27.0153 46.0277 27.8664 47.1374 28.9974C48.2471 30.1283 49.0722 31.5068 49.5446 33.0192C50.0171 34.5316 50.1234 36.1346 49.8548 37.6961C49.5862 39.2576 48.9504 40.733 47.9998 42.0006" stroke="white" stroke-width="2" stroke-linecap="round" stroke-linejoin="round"/>
</svg>
