<svg width="88" height="48" viewBox="0 0 88 48" fill="none" xmlns="http://www.w3.org/2000/svg">
<path fill-rule="evenodd" clip-rule="evenodd" d="M80.0961 25.5008C80.0961 20.374 77.6129 16.3286 72.8666 16.3286C68.1002 16.3286 65.2164 20.374 65.2164 25.4607C65.2164 31.4887 68.6209 34.5327 73.5074 34.5327C75.8906 34.5327 77.693 33.992 79.0548 33.231V29.2257C77.693 29.9066 76.1309 30.3271 74.1483 30.3271C72.2057 30.3271 70.4834 29.6462 70.2631 27.2831H80.0561C80.0561 27.0228 80.0961 25.9814 80.0961 25.5008ZM70.203 23.5982C70.203 21.3352 71.5849 20.394 72.8465 20.394C74.0682 20.394 75.3699 21.3352 75.3699 23.5982H70.203Z" fill="#C5C5C5"/>
<path fill-rule="evenodd" clip-rule="evenodd" d="M57.4863 16.3286C55.5237 16.3286 54.262 17.2498 53.5611 17.8907L53.3007 16.649H48.8949V40L53.9015 38.9385L53.9215 33.271C54.6425 33.7917 55.7039 34.5327 57.4662 34.5327C61.051 34.5327 64.3153 31.6489 64.3153 25.3005C64.2953 19.4928 60.9909 16.3286 57.4863 16.3286ZM56.2847 30.1269C55.1031 30.1269 54.4022 29.7063 53.9215 29.1856L53.9015 21.7558C54.4222 21.175 55.1432 20.7745 56.2847 20.7745C58.1071 20.7745 59.3688 22.8172 59.3688 25.4407C59.3688 28.1242 58.1271 30.1269 56.2847 30.1269Z" fill="#C5C5C5"/>
<path fill-rule="evenodd" clip-rule="evenodd" d="M42.0043 15.1468L47.0309 14.0654V10L42.0043 11.0614V15.1468Z" fill="#C5C5C5"/>
<path d="M47.0309 16.6694H42.0043V34.1926H47.0309V16.6694Z" fill="#C5C5C5"/>
<path fill-rule="evenodd" clip-rule="evenodd" d="M36.6187 18.1504L36.2983 16.6684H31.9725V34.1916H36.9792V22.3159C38.1607 20.7739 40.1634 21.0542 40.7842 21.2745V16.6684C40.1434 16.4281 37.8003 15.9875 36.6187 18.1504Z" fill="#C5C5C5"/>
<path fill-rule="evenodd" clip-rule="evenodd" d="M26.6043 12.3232L21.7178 13.3646L21.6978 29.4059C21.6978 32.3698 23.9207 34.5527 26.8846 34.5527C28.5268 34.5527 29.7284 34.2523 30.3893 33.8918V29.8264C29.7484 30.0868 26.5842 31.008 26.5842 28.0441V20.9346H30.3893V16.669H26.5842L26.6043 12.3232Z" fill="#C5C5C5"/>
<path fill-rule="evenodd" clip-rule="evenodd" d="M13.0667 21.7558C13.0667 20.9748 13.7076 20.6744 14.769 20.6744C16.291 20.6744 18.2135 21.135 19.7355 21.9561V17.2498C18.0733 16.589 16.4312 16.3286 14.769 16.3286C10.7036 16.3286 8 18.4514 8 21.9961C8 27.5234 15.6101 26.6423 15.6101 29.0254C15.6101 29.9467 14.809 30.2471 13.6875 30.2471C12.0253 30.2471 9.90252 29.5662 8.22029 28.6449V33.4112C10.0828 34.2123 11.9653 34.5528 13.6875 34.5528C17.8531 34.5528 20.7168 32.49 20.7168 28.9053C20.6968 22.9374 13.0667 23.9988 13.0667 21.7558Z" fill="#C5C5C5"/>
</svg>
