<svg width="192" height="192" viewBox="0 0 192 192" fill="none" xmlns="http://www.w3.org/2000/svg">
<path opacity="0.2" d="M96 162C132.451 162 162 132.451 162 96C162 59.5492 132.451 30 96 30C59.5492 30 30 59.5492 30 96C30 132.451 59.5492 162 96 162Z" fill="#624CE0"/>
<path fill-rule="evenodd" clip-rule="evenodd" d="M96 57C97.6569 57 99 58.3431 99 60V96C99 97.6569 97.6569 99 96 99C94.3431 99 93 97.6569 93 96V60C93 58.3431 94.3431 57 96 57Z" fill="#624CE0"/>
<path fill-rule="evenodd" clip-rule="evenodd" d="M93.4019 94.4995C94.2304 93.0646 96.0651 92.573 97.5 93.4014L128.677 111.401C130.112 112.23 130.603 114.065 129.775 115.5C128.947 116.934 127.112 117.426 125.677 116.598L94.5 98.5976C93.0651 97.7692 92.5735 95.9344 93.4019 94.4995Z" fill="#624CE0"/>
<path fill-rule="evenodd" clip-rule="evenodd" d="M168.125 41.7871C169.782 41.7871 171.125 43.1303 171.125 44.7871V74.7871C171.125 76.444 169.782 77.7871 168.125 77.7871H138.125C136.468 77.7871 135.125 76.444 135.125 74.7871C135.125 73.1303 136.468 71.7871 138.125 71.7871H165.125V44.7871C165.125 43.1303 166.468 41.7871 168.125 41.7871Z" fill="#624CE0"/>
<path fill-rule="evenodd" clip-rule="evenodd" d="M108.291 34.2106C96.0699 31.7797 83.4027 33.0273 71.8909 37.7956C60.3792 42.5639 50.5399 50.6388 43.6174 60.9991C36.6949 71.3594 33 83.5398 33 96C33 108.46 36.6949 120.641 43.6174 131.001C50.5399 141.361 60.3792 149.436 71.8909 154.204C83.4027 158.973 96.0699 160.22 108.291 157.79C120.511 155.359 131.737 149.358 140.548 140.548C141.719 139.376 143.619 139.376 144.79 140.548C145.962 141.719 145.962 143.619 144.79 144.79C135.141 154.44 122.846 161.012 109.461 163.674C96.0765 166.337 82.2029 164.97 69.5948 159.748C56.9867 154.525 46.2104 145.681 38.6286 134.334C31.0468 122.987 27 109.647 27 96C27 82.3531 31.0468 69.0127 38.6286 57.6657C46.2104 46.3187 56.9867 37.4748 69.5948 32.2523C82.2029 27.0299 96.0765 25.6635 109.461 28.3258C122.846 30.9882 135.141 37.5598 144.79 47.2097L170.246 72.6655C171.418 73.8371 171.418 75.7366 170.246 76.9081C169.075 78.0797 167.175 78.0797 166.004 76.9081L140.548 51.4523C131.737 42.6416 120.511 36.6414 108.291 34.2106Z" fill="#624CE0"/>
</svg>
