<svg width="152" height="48" viewBox="0 0 152 48" fill="none" xmlns="http://www.w3.org/2000/svg">
<path d="M142.074 30.4646C141.988 30.8979 141.84 31.2761 141.631 31.6009C141.421 31.9259 141.147 32.1904 140.808 32.3912C140.469 32.5936 140.047 32.6952 139.542 32.6952C139.051 32.6952 138.633 32.5936 138.286 32.3912C137.94 32.1904 137.662 31.9259 137.452 31.6009C137.244 31.2761 137.092 30.8979 136.998 30.4646C136.904 30.0322 136.858 29.5913 136.858 29.1452C136.858 28.6816 136.902 28.2344 136.988 27.8024C137.074 27.3692 137.223 26.987 137.432 26.6533C137.641 26.3222 137.915 26.0517 138.254 25.8429C138.592 25.6335 139.015 25.5276 139.52 25.5276C140.011 25.5276 140.425 25.6335 140.764 25.8429C141.104 26.0517 141.381 26.3251 141.598 26.6648C141.815 27.0043 141.97 27.3908 142.064 27.8232C142.158 28.2566 142.204 28.6972 142.204 29.1452C142.204 29.5913 142.161 30.0322 142.074 30.4646L142.074 30.4646ZM144.975 26.9462C144.772 26.218 144.462 25.5789 144.044 25.0302C143.625 24.4821 143.099 24.0413 142.464 23.7099C141.829 23.3773 141.071 23.2121 140.19 23.2121C139.499 23.2121 138.863 23.3486 138.286 23.6229C137.709 23.8974 137.233 24.3377 136.858 24.9439H136.815V23.5144H133.893V38.6277H136.966V33.3233H137.009C137.384 33.8722 137.865 34.2865 138.449 34.5672C139.033 34.8486 139.672 34.9902 140.365 34.9902C141.187 34.9902 141.904 34.8302 142.519 34.5135C143.131 34.1964 143.644 33.77 144.055 33.2357C144.467 32.7014 144.772 32.0887 144.975 31.3958C145.178 30.7027 145.278 29.9811 145.278 29.2307C145.278 28.4369 145.178 27.6759 144.975 26.9462V26.9462ZM129.824 30.4646C129.737 30.898 129.588 31.2762 129.38 31.601C129.171 31.926 128.896 32.1905 128.556 32.3913C128.218 32.5937 127.795 32.6953 127.291 32.6953C126.799 32.6953 126.383 32.5937 126.036 32.3913C125.689 32.1905 125.412 31.926 125.203 31.601C124.993 31.2762 124.842 30.898 124.748 30.4646C124.654 30.0323 124.608 29.5913 124.608 29.1452C124.608 28.6817 124.65 28.2345 124.736 27.8025C124.824 27.3693 124.971 26.9871 125.181 26.6534C125.389 26.3223 125.664 26.0518 126.004 25.843C126.343 25.6336 126.763 25.5277 127.269 25.5277C127.759 25.5277 128.176 25.6336 128.514 25.843C128.853 26.0518 129.131 26.3252 129.347 26.6648C129.563 27.0043 129.718 27.3909 129.812 27.8233C129.907 28.2566 129.952 28.6973 129.952 29.1453C129.952 29.5914 129.91 30.0323 129.824 30.4647L129.824 30.4646ZM131.793 25.0304C131.375 24.4822 130.848 24.0415 130.213 23.71C129.577 23.3775 128.821 23.2123 127.941 23.2123C127.247 23.2123 126.613 23.3488 126.036 23.6231C125.457 23.8976 124.983 24.3379 124.608 24.9441H124.564V23.5146H121.641V38.6279H124.716V33.3234H124.758C125.133 33.8724 125.614 34.2867 126.199 34.5674C126.782 34.8488 127.421 34.9904 128.114 34.9904C128.937 34.9904 129.654 34.8304 130.267 34.5137C130.88 34.1966 131.393 33.7702 131.804 33.2359C132.216 32.7015 132.521 32.0888 132.724 31.396C132.925 30.7029 133.027 29.9813 133.027 29.2309C133.027 28.4371 132.925 27.676 132.724 26.9464C132.521 26.2182 132.211 25.5791 131.793 25.0304V25.0304ZM111.578 28.733L113.591 23.0601H113.633L115.582 28.733H111.578ZM111.902 19.2497L106.058 34.7081H109.478L110.69 31.2655H116.469L117.637 34.7081H121.166L115.388 19.2497H111.902ZM105.798 29.8046C105.596 29.4511 105.329 29.1552 104.997 28.9163C104.665 28.6789 104.286 28.4872 103.861 28.3422C103.435 28.1986 102.998 28.0769 102.551 27.9754C102.118 27.874 101.693 27.7801 101.275 27.6933C100.856 27.6063 100.484 27.509 100.159 27.4014C99.8346 27.2929 99.5722 27.1531 99.3699 26.9784C99.1672 26.8057 99.0672 26.5823 99.0672 26.3077C99.0672 26.0767 99.1235 25.8929 99.2396 25.7554C99.3554 25.619 99.4962 25.514 99.662 25.4411C99.8283 25.3695 100.011 25.3229 100.214 25.3005C100.415 25.2792 100.604 25.269 100.776 25.269C101.325 25.269 101.801 25.3734 102.206 25.5826C102.609 25.7919 102.833 26.1925 102.876 26.7839H105.798C105.74 26.0915 105.564 25.518 105.268 25.0621C104.972 24.6081 104.6 24.2435 104.153 23.9696C103.707 23.6953 103.198 23.5008 102.627 23.385C102.057 23.2694 101.469 23.2123 100.864 23.2123C100.257 23.2123 99.6649 23.2665 99.0892 23.3736C98.5108 23.4824 97.9915 23.6708 97.5304 23.9372C97.0681 24.2042 96.6971 24.568 96.4151 25.0304C96.1333 25.4921 95.9927 26.0846 95.9927 26.8057C95.9927 27.2965 96.0946 27.7123 96.2968 28.0511C96.497 28.3908 96.7653 28.6711 97.096 28.8951C97.4288 29.1188 97.8078 29.2999 98.2333 29.436C98.6589 29.5745 99.0955 29.6927 99.5421 29.7942C100.64 30.0255 101.495 30.2556 102.108 30.4873C102.721 30.7178 103.028 31.0641 103.028 31.5265C103.028 31.8006 102.963 32.0267 102.833 32.2076C102.703 32.389 102.541 32.5324 102.346 32.6407C102.15 32.7494 101.934 32.8293 101.697 32.8786C101.459 32.9296 101.231 32.9551 101.015 32.9551C100.711 32.9551 100.419 32.9186 100.139 32.8467C99.8567 32.7744 99.6078 32.6624 99.3916 32.5108C99.1753 32.3595 98.9976 32.165 98.8608 31.9261C98.7247 31.6878 98.6547 31.4039 98.6547 31.0711H95.733C95.7626 31.8216 95.9316 32.4462 96.2427 32.944C96.5515 33.442 96.9481 33.8421 97.4324 34.1458C97.9156 34.4484 98.4681 34.6654 99.0892 34.7957C99.7086 34.9252 100.344 34.9904 100.992 34.9904C101.627 34.9904 102.251 34.9285 102.865 34.8069C103.478 34.6838 104.023 34.4708 104.5 34.1671C104.977 33.8645 105.361 33.4641 105.658 32.9657C105.953 32.4671 106.1 31.8502 106.1 31.114C106.1 30.5935 106 30.1582 105.798 29.8047L105.798 29.8046ZM93.0932 20.1591H90.0191V23.5144H88.1585V25.571H90.0191V32.1752C90.0191 32.7389 90.114 33.193 90.3009 33.5391C90.4888 33.885 90.7446 34.1537 91.0689 34.3408C91.3937 34.5285 91.7692 34.6543 92.1949 34.7193C92.6194 34.7838 93.0723 34.8166 93.5474 34.8166C93.8515 34.8166 94.1609 34.8088 94.4789 34.7958C94.7956 34.781 95.084 34.7529 95.3443 34.7083V32.3264C95.1995 32.3558 95.0482 32.3784 94.889 32.3914C94.7308 32.4061 94.5647 32.4138 94.3915 32.4138C93.8725 32.4138 93.5258 32.3264 93.3522 32.1534C93.18 31.9807 93.0932 31.6341 93.0932 31.114V25.5713H95.3443V23.5147H93.0932L93.0932 20.1591ZM84.2837 30.3771C84.2837 30.5518 84.2661 30.7826 84.2295 31.0708C84.1937 31.3603 84.0962 31.6443 83.9376 31.9258C83.7788 32.2073 83.5326 32.45 83.2017 32.6511C82.87 32.8538 82.401 32.9548 81.7943 32.9548C81.5496 32.9548 81.3111 32.9331 81.0803 32.889C80.849 32.8464 80.6476 32.7699 80.4743 32.662C80.3015 32.5538 80.1639 32.4058 80.0628 32.2181C79.9624 32.0305 79.9113 31.8003 79.9113 31.5262C79.9113 31.2377 79.9624 30.998 80.0628 30.8112C80.1639 30.6245 80.2976 30.4687 80.4639 30.3456C80.629 30.223 80.8241 30.1258 81.0478 30.0529C81.2714 29.981 81.4983 29.9234 81.7299 29.88C81.9745 29.8376 82.2205 29.8003 82.4651 29.7716C82.7114 29.7434 82.9456 29.7063 83.1688 29.6637C83.3931 29.6205 83.6017 29.5657 83.797 29.5007C83.9918 29.4357 84.1536 29.3467 84.2837 29.2305L84.2837 30.3771ZM87.357 32.2181V26.3948C87.357 25.7153 87.2062 25.171 86.9022 24.7602C86.5998 24.3485 86.21 24.0277 85.7344 23.7966C85.2575 23.5658 84.7304 23.4104 84.1535 23.3312C83.5767 23.2518 83.0064 23.2123 82.444 23.2123C81.8239 23.2123 81.2064 23.2731 80.594 23.3962C79.9792 23.5188 79.4285 23.7249 78.9376 24.0129C78.4468 24.3016 78.0417 24.6846 77.726 25.1604C77.4075 25.6366 77.2274 26.2357 77.1843 26.9577H80.2574C80.3152 26.3511 80.5181 25.9177 80.8645 25.6583C81.2106 25.3983 81.6862 25.2691 82.2929 25.2691C82.5666 25.2691 82.8224 25.2872 83.0611 25.323C83.2987 25.3594 83.5082 25.4305 83.6888 25.5394C83.8694 25.6476 84.0136 25.7987 84.1213 25.9942C84.2296 26.1889 84.2837 26.4529 84.2837 26.784C84.2981 27.1025 84.2039 27.3428 84.0028 27.5091C83.8001 27.676 83.5264 27.8026 83.18 27.8881C82.8335 27.9755 82.4366 28.0407 81.9891 28.0826C81.5416 28.1268 81.0874 28.1857 80.6262 28.2568C80.1639 28.3292 79.7056 28.4264 79.2521 28.5492C78.7976 28.6711 78.3923 28.8561 78.0393 29.1004C77.6854 29.347 77.397 29.6749 77.1727 30.0865C76.9495 30.4981 76.8379 31.0217 76.8379 31.656C76.8379 32.2332 76.9351 32.7311 77.13 33.1493C77.3246 33.5691 77.5951 33.9141 77.9418 34.1887C78.2884 34.463 78.6921 34.6654 79.1538 34.7957C79.6149 34.9252 80.1131 34.9904 80.6476 34.9904C81.3401 34.9904 82.0186 34.8889 82.6812 34.6878C83.3454 34.4843 83.9232 34.1319 84.4138 33.626C84.4282 33.8135 84.4533 33.9982 84.489 34.1782C84.5251 34.3578 84.5724 34.5357 84.6301 34.7083H87.7473C87.6031 34.4786 87.5013 34.1319 87.4442 33.6692C87.3857 33.2076 87.357 32.7249 87.357 32.2183L87.357 32.2181ZM74.695 24.4776C74.3924 24.0806 73.9773 23.7708 73.4513 23.5465C72.924 23.3239 72.2494 23.2121 71.4273 23.2121C70.85 23.2121 70.2585 23.3595 69.6518 23.656C69.0461 23.9511 68.548 24.4243 68.1587 25.0742H68.0937V19.2495H65.0201V34.708H68.0937V28.8408C68.0937 27.7007 68.2811 26.8821 68.6566 26.3833C69.0314 25.8859 69.6375 25.6365 70.4748 25.6365C71.2104 25.6365 71.7228 25.8638 72.0115 26.3191C72.3002 26.7732 72.4443 27.4628 72.4443 28.3862V34.7083H75.5181V27.8234C75.5181 27.131 75.4562 26.4998 75.3339 25.9286C75.2112 25.3594 74.9983 24.8754 74.695 24.4779L74.695 24.4776ZM58.4621 29.9021H58.4193L55.7787 19.2498H52.5969L49.9126 29.7723H49.8696L47.4236 19.2498H44.0259L48.1165 34.7083H51.5583L54.1334 24.1858H54.1768L56.7958 34.7083H60.1724L64.3284 19.2498H60.9952L58.4621 29.9021Z" fill="#C5C5C5"/>
<path d="M15.7974 37.9209L16.279 38.2064C18.3025 39.4073 20.6225 40.0424 22.9883 40.0436H22.9935C30.2592 40.0436 36.1726 34.1316 36.1753 26.8655C36.1764 23.344 34.8067 20.0332 32.3179 17.5421C29.8289 15.0515 26.5197 13.6789 22.9982 13.6774C15.727 13.6774 9.81362 19.5885 9.81087 26.8547C9.80991 29.3446 10.5064 31.7696 11.8262 33.8675L12.1399 34.3662L10.8079 39.2291L15.7974 37.9209ZM7.00024 42.9959L9.25022 34.7802C7.86241 32.3757 7.13232 29.6481 7.13346 26.8539C7.13684 18.1121 14.251 11 22.9938 11C27.2362 11.0018 31.2182 12.6529 34.2126 15.6498C37.2067 18.6466 38.8551 22.6302 38.8537 26.8667C38.85 35.6081 31.7343 42.7216 22.9938 42.7216C22.9932 42.7216 22.9941 42.7216 22.9938 42.7216H22.987C20.3327 42.7207 17.7246 42.0549 15.4082 40.7915L7.00024 42.9959Z" fill="#C5C5C5"/>
<path d="M7.13322 26.8588C7.13226 29.653 7.86235 32.3809 9.25015 34.7851L7 43.0003L15.4077 40.7958C17.7243 42.0591 20.3322 42.7249 22.9865 42.726H22.9933C31.7338 42.726 38.8495 35.6125 38.8532 26.8711C38.8546 22.6344 37.2062 18.6509 34.2121 15.6542C31.2175 12.6575 27.2358 11.0062 22.9933 11.0044C14.251 11.0044 7.13661 18.1165 7.13295 26.8583L7.13322 26.8588ZM12.1398 34.3709L11.8259 33.8724C10.5062 31.7742 9.80968 29.3492 9.81064 26.8595C9.81352 19.5938 15.7268 13.6823 22.9979 13.6823C26.5191 13.6836 29.8284 15.0564 32.3177 17.5469C34.8066 20.0377 36.1762 23.3488 36.1752 26.8699C36.172 34.136 30.2586 40.048 22.993 40.048H22.9878C20.622 40.0466 18.3019 39.4116 16.2785 38.2109L15.7969 37.9254L10.8074 39.2336L12.1398 34.3709ZM22.9933 42.726H22.9934H22.9933C22.9931 42.726 22.993 42.726 22.9933 42.726Z" fill="#C5C5C5"/>
<path fill-rule="evenodd" clip-rule="evenodd" d="M19.0293 20.2291C18.7324 19.5692 18.42 19.556 18.1376 19.5444C17.9065 19.5345 17.6421 19.5352 17.3781 19.5352C17.1138 19.5352 16.6845 19.6343 16.3214 20.0309C15.9581 20.4275 14.9343 21.3861 14.9343 23.3358C14.9343 25.2856 16.3545 27.1696 16.5524 27.4343C16.7506 27.6985 19.294 31.8275 23.3216 33.4158C26.6692 34.7359 27.3504 34.4733 28.077 34.4072C28.8036 34.3412 30.4217 33.4489 30.7518 32.5235C31.0821 31.5982 31.0821 30.8051 30.983 30.6395C30.884 30.4743 30.6197 30.3751 30.2234 30.1771C29.827 29.9789 27.8788 29.0201 27.5156 28.8878C27.1523 28.7558 26.8881 28.6898 26.6237 29.0865C26.3596 29.4828 25.6006 30.3751 25.3693 30.6395C25.1382 30.9043 24.9069 30.9373 24.5107 30.7391C24.1143 30.5403 22.8379 30.1222 21.3238 28.7724C20.1457 27.722 19.3505 26.4248 19.1192 26.0281C18.8881 25.6318 19.0945 25.4172 19.2932 25.2196C19.4713 25.042 19.6896 24.7569 19.8878 24.5256C20.0856 24.2942 20.1515 24.129 20.2836 23.8647C20.4159 23.6002 20.3497 23.3688 20.2507 23.1705C20.1515 22.9723 19.3814 21.0126 19.029 20.229" fill="#C5C5C5"/>
</svg>
